<?xml version="1.0" encoding="UTF-8"?>
<svg xmlns="http://www.w3.org/2000/svg"
     xmlns:xlink="http://www.w3.org/1999/xlink"
     xmlns:gadfly="http://www.gadflyjl.org/ns"
     version="1.2"
     width="309.88mm" height="81.28mm" viewBox="0 0 309.88 81.28"
     stroke="none"
     fill="#000000"
     stroke-width="0.3"
     font-size="3.88"
>
<defs>
  <marker id="arrow" markerWidth="15" markerHeight="7" refX="5" refY="3.5" orient="auto" markerUnits="strokeWidth">
    <path d="M0,0 L15,3.5 L0,7 z" stroke="context-stroke" fill="context-stroke"/>
  </marker>
</defs>
<g class="plotroot xscalable yscalable" id="img-6a767598-1">
  <g font-size="4.23" font-family="Palatino" fill="#564A55" stroke="#000000" stroke-opacity="0.000" id="img-6a767598-2">
    <g transform="translate(162.17,69.34)">
      <g class="primitive">
        <text text-anchor="middle" dy="0.6em">Line</text>
      </g>
    </g>
  </g>
  <g class="guide xlabels" font-size="3.18" font-family="'PT Sans Caption','Helvetica Neue','Helvetica',sans-serif" fill="#6C606B" id="img-6a767598-3">
    <g transform="translate(21.46,62.33)">
      <g class="primitive">
        <text text-anchor="middle" dy="0.6em">0</text>
      </g>
    </g>
    <g transform="translate(91.82,62.33)">
      <g class="primitive">
        <text text-anchor="middle" dy="0.6em">5</text>
      </g>
    </g>
    <g transform="translate(162.17,62.33)">
      <g class="primitive">
        <text text-anchor="middle" dy="0.6em">10</text>
      </g>
    </g>
    <g transform="translate(232.53,62.33)">
      <g class="primitive">
        <text text-anchor="middle" dy="0.6em">15</text>
      </g>
    </g>
    <g transform="translate(302.88,62.33)">
      <g class="primitive">
        <text text-anchor="middle" dy="0.6em">20</text>
      </g>
    </g>
  </g>
  <g clip-path="url(#img-6a767598-4)">
    <g id="img-6a767598-5">
      <g pointer-events="visible" fill="#000000" fill-opacity="0.000" stroke="#000000" stroke-opacity="0.000" class="guide background" id="img-6a767598-6">
        <g transform="translate(162.17,36.14)" id="img-6a767598-7">
          <path d="M-142.71,-25.2 L 142.71 -25.2 142.71 25.2 -142.71 25.2 z" class="primitive"/>
        </g>
      </g>
      <g class="guide ygridlines xfixed" stroke-dasharray="0.5,0.5" stroke-width="0.2" stroke="#D0D0E0" id="img-6a767598-8">
        <g transform="translate(162.17,59.33)" id="img-6a767598-9">
          <path fill="none" d="M-142.71,0 L 142.71 0" class="primitive"/>
        </g>
        <g transform="translate(162.17,36.14)" id="img-6a767598-10">
          <path fill="none" d="M-142.71,0 L 142.71 0" class="primitive"/>
        </g>
        <g transform="translate(162.17,12.94)" id="img-6a767598-11">
          <path fill="none" d="M-142.71,0 L 142.71 0" class="primitive"/>
        </g>
      </g>
      <g class="guide xgridlines yfixed" stroke-dasharray="0.5,0.5" stroke-width="0.2" stroke="#D0D0E0" id="img-6a767598-12">
        <g transform="translate(21.46,36.14)" id="img-6a767598-13">
          <path fill="none" d="M0,-25.2 L 0 25.2" class="primitive"/>
        </g>
        <g transform="translate(91.82,36.14)" id="img-6a767598-14">
          <path fill="none" d="M0,-25.2 L 0 25.2" class="primitive"/>
        </g>
        <g transform="translate(162.17,36.14)" id="img-6a767598-15">
          <path fill="none" d="M0,-25.2 L 0 25.2" class="primitive"/>
        </g>
        <g transform="translate(232.53,36.14)" id="img-6a767598-16">
          <path fill="none" d="M0,-25.2 L 0 25.2" class="primitive"/>
        </g>
        <g transform="translate(302.88,36.14)" id="img-6a767598-17">
          <path fill="none" d="M0,-25.2 L 0 25.2" class="primitive"/>
        </g>
      </g>
      <g class="plotpanel" id="img-6a767598-18">
        <metadata>
          <boundingbox value="19.462499999999977mm 10.939999999999998mm 285.41749999999996mm 50.392500000000005mm"/>
          <unitbox value="-0.14213757140192065 1.0431104165543998 20.284275142803843 -1.0862208331088"/>
        </metadata>
        <g shape-rendering="crispEdges" stroke-width="0.3" id="img-6a767598-19">
          <g stroke="#000000" stroke-opacity="0.000" class="geometry" fill="#000000" id="img-6a767598-20">
            <g transform="translate(35.53,36.14)" id="img-6a767598-21">
              <path d="M-6.94,-23.2 L 6.94 -23.2 6.94 23.2 -6.94 23.2 z" class="primitive"/>
            </g>
            <g transform="translate(49.6,36.14)" id="img-6a767598-22">
              <path d="M-6.94,-23.2 L 6.94 -23.2 6.94 23.2 -6.94 23.2 z" class="primitive"/>
            </g>
            <g transform="translate(63.68,36.14)" id="img-6a767598-23">
              <path d="M-6.94,-23.2 L 6.94 -23.2 6.94 23.2 -6.94 23.2 z" class="primitive"/>
            </g>
            <g transform="translate(77.75,59.34)" id="img-6a767598-24">
              <path d="M-6.94,-0 L 6.94 -0 6.94 0 -6.94 0 z" class="primitive"/>
            </g>
            <g transform="translate(91.82,59.34)" id="img-6a767598-25">
              <path d="M-6.94,-0 L 6.94 -0 6.94 0 -6.94 0 z" class="primitive"/>
            </g>
            <g transform="translate(105.89,36.14)" id="img-6a767598-26">
              <path d="M-6.94,-23.2 L 6.94 -23.2 6.94 23.2 -6.94 23.2 z" class="primitive"/>
            </g>
            <g transform="translate(119.96,36.14)" id="img-6a767598-27">
              <path d="M-6.94,-23.2 L 6.94 -23.2 6.94 23.2 -6.94 23.2 z" class="primitive"/>
            </g>
            <g transform="translate(134.03,36.14)" id="img-6a767598-28">
              <path d="M-6.94,-23.2 L 6.94 -23.2 6.94 23.2 -6.94 23.2 z" class="primitive"/>
            </g>
            <g transform="translate(148.1,36.14)" id="img-6a767598-29">
              <path d="M-6.94,-23.2 L 6.94 -23.2 6.94 23.2 -6.94 23.2 z" class="primitive"/>
            </g>
            <g transform="translate(162.17,59.34)" id="img-6a767598-30">
              <path d="M-6.94,-0 L 6.94 -0 6.94 0 -6.94 0 z" class="primitive"/>
            </g>
            <g transform="translate(176.24,36.14)" id="img-6a767598-31">
              <path d="M-6.94,-23.2 L 6.94 -23.2 6.94 23.2 -6.94 23.2 z" class="primitive"/>
            </g>
            <g transform="translate(190.31,59.34)" id="img-6a767598-32">
              <path d="M-6.94,-0 L 6.94 -0 6.94 0 -6.94 0 z" class="primitive"/>
            </g>
            <g transform="translate(204.38,59.34)" id="img-6a767598-33">
              <path d="M-6.94,-0 L 6.94 -0 6.94 0 -6.94 0 z" class="primitive"/>
            </g>
            <g transform="translate(218.45,59.34)" id="img-6a767598-34">
              <path d="M-6.94,-0 L 6.94 -0 6.94 0 -6.94 0 z" class="primitive"/>
            </g>
            <g transform="translate(232.53,36.14)" id="img-6a767598-35">
              <path d="M-6.94,-23.2 L 6.94 -23.2 6.94 23.2 -6.94 23.2 z" class="primitive"/>
            </g>
            <g transform="translate(246.6,36.14)" id="img-6a767598-36">
              <path d="M-6.94,-23.2 L 6.94 -23.2 6.94 23.2 -6.94 23.2 z" class="primitive"/>
            </g>
            <g transform="translate(260.67,36.14)" id="img-6a767598-37">
              <path d="M-6.94,-23.2 L 6.94 -23.2 6.94 23.2 -6.94 23.2 z" class="primitive"/>
            </g>
            <g transform="translate(274.74,36.14)" id="img-6a767598-38">
              <path d="M-6.94,-23.2 L 6.94 -23.2 6.94 23.2 -6.94 23.2 z" class="primitive"/>
            </g>
            <g transform="translate(288.81,36.14)" id="img-6a767598-39">
              <path d="M-6.94,-23.2 L 6.94 -23.2 6.94 23.2 -6.94 23.2 z" class="primitive"/>
            </g>
            <g transform="translate(302.88,36.14)" id="img-6a767598-40">
              <path d="M-6.94,-23.2 L 6.94 -23.2 6.94 23.2 -6.94 23.2 z" class="primitive"/>
            </g>
          </g>
        </g>
      </g>
    </g>
  </g>
  <g class="guide ylabels" font-size="3.18" font-family="'PT Sans Caption','Helvetica Neue','Helvetica',sans-serif" fill="#6C606B" id="img-6a767598-41">
    <g transform="translate(18.46,59.33)" id="img-6a767598-42">
      <g class="primitive">
        <text text-anchor="end" dy="0.35em">0.0</text>
      </g>
    </g>
    <g transform="translate(18.46,36.14)" id="img-6a767598-43">
      <g class="primitive">
        <text text-anchor="end" dy="0.35em">0.5</text>
      </g>
    </g>
    <g transform="translate(18.46,12.94)" id="img-6a767598-44">
      <g class="primitive">
        <text text-anchor="end" dy="0.35em">1.0</text>
      </g>
    </g>
  </g>
  <g font-size="4.23" font-family="Palatino" fill="#564A55" stroke="#000000" stroke-opacity="0.000" id="img-6a767598-45">
    <g transform="translate(8.97,34.14)" id="img-6a767598-46">
      <g class="primitive">
        <text text-anchor="middle" dy="0.35em" transform="rotate(-90,0, 2)">Line Status</text>
      </g>
    </g>
  </g>
  <g font-size="4.23" font-family="Palatino" fill="#564A55" stroke="#000000" stroke-opacity="0.000" id="img-6a767598-47">
    <g transform="translate(162.17,5)" id="img-6a767598-48">
      <g class="primitive">
        <text text-anchor="middle" dy="0.6em">Results, Operational Status of Lines</text>
      </g>
    </g>
  </g>
</g>
<defs>
  <clipPath id="img-6a767598-4">
    <path d="M19.46,10.94 L 304.88 10.94 304.88 61.33 19.46 61.33" />
  </clipPath>
</defs>
</svg>
