<?xml version="1.0" encoding="UTF-8"?>
<svg xmlns="http://www.w3.org/2000/svg"
     xmlns:xlink="http://www.w3.org/1999/xlink"
     xmlns:gadfly="http://www.gadflyjl.org/ns"
     version="1.2"
     width="182.88mm" height="132.08mm" viewBox="0 0 182.88 132.08"
     stroke="none"
     fill="#000000"
     stroke-width="0.3"
     font-size="3.88"
>
<defs>
  <marker id="arrow" markerWidth="15" markerHeight="7" refX="5" refY="3.5" orient="auto" markerUnits="strokeWidth">
    <path d="M0,0 L15,3.5 L0,7 z" stroke="context-stroke" fill="context-stroke"/>
  </marker>
</defs>
<g class="plotroot yscalable" id="img-f2ed6039-1">
  <g font-size="4.23" font-family="Palatino" fill="#000000" stroke="#000000" stroke-opacity="0.000" id="img-f2ed6039-2">
    <g transform="translate(86.11,120.14)">
      <g class="primitive">
        <text text-anchor="middle" dy="0.6em">Dataset</text>
      </g>
    </g>
  </g>
  <g class="guide xlabels" font-size="3.53" font-family="'PT Sans Caption','Helvetica Neue','Helvetica',sans-serif" fill="#000000" id="img-f2ed6039-3">
    <g transform="translate(29.41,71.16)">
      <g class="primitive">
        <text text-anchor="end" dy="0.35em" transform="rotate(-90,0, 0)">pglib_opf_case3_lmbd</text>
      </g>
    </g>
    <g transform="translate(48.31,71.16)">
      <g class="primitive">
        <text text-anchor="end" dy="0.35em" transform="rotate(-90,0, 0)">pglib_opf_case5_pjm</text>
      </g>
    </g>
    <g transform="translate(67.21,71.16)">
      <g class="primitive">
        <text text-anchor="end" dy="0.35em" transform="rotate(-90,0, 0)">pglib_opf_case14_ieee</text>
      </g>
    </g>
    <g transform="translate(86.11,71.16)">
      <g class="primitive">
        <text text-anchor="end" dy="0.35em" transform="rotate(-90,0, 0)">pglib_opf_case24_ieee_rts</text>
      </g>
    </g>
    <g transform="translate(105,71.16)">
      <g class="primitive">
        <text text-anchor="end" dy="0.35em" transform="rotate(-90,0, 0)">pglib_opf_case30_as</text>
      </g>
    </g>
    <g transform="translate(123.9,71.16)">
      <g class="primitive">
        <text text-anchor="end" dy="0.35em" transform="rotate(-90,0, 0)">pglib_opf_case30_fsr</text>
      </g>
    </g>
    <g transform="translate(142.8,71.16)">
      <g class="primitive">
        <text text-anchor="end" dy="0.35em" transform="rotate(-90,0, 0)">pglib_opf_case30_ieee</text>
      </g>
    </g>
  </g>
  <g class="guide colorkey" id="img-f2ed6039-4">
    <g fill="#000000" font-size="2.82" font-family="'PT Sans','Helvetica Neue','Helvetica',sans-serif" id="img-f2ed6039-5">
      <g transform="translate(156.06,40.55)" id="img-f2ed6039-6">
        <g class="primitive">
          <text dy="0.35em">MIP formulation</text>
        </g>
      </g>
      <g transform="translate(156.06,44.18)" id="img-f2ed6039-7">
        <g class="primitive">
          <text dy="0.35em">LP, all lines active</text>
        </g>
      </g>
    </g>
    <g stroke="#000000" stroke-opacity="0.000" id="img-f2ed6039-8">
      <g transform="translate(154.15,40.55)" id="img-f2ed6039-9" fill="#FFFFFF">
        <path d="M-0.91,-0.91 L 0.91 -0.91 0.91 0.91 -0.91 0.91 z" class="primitive"/>
      </g>
      <g transform="translate(154.15,44.18)" id="img-f2ed6039-10" fill="#ADD8E6">
        <path d="M-0.91,-0.91 L 0.91 -0.91 0.91 0.91 -0.91 0.91 z" class="primitive"/>
      </g>
    </g>
    <g fill="#000000" font-size="4.23" font-family="Palatino" stroke="#000000" stroke-opacity="0.000" id="img-f2ed6039-11">
      <g transform="translate(153.25,36.89)" id="img-f2ed6039-12">
        <g class="primitive">
          <text dy="-0em">Model</text>
        </g>
      </g>
    </g>
  </g>
  <g clip-path="url(#img-f2ed6039-13)">
    <g id="img-f2ed6039-14">
      <g pointer-events="visible" fill="#000000" fill-opacity="0.000" stroke="#000000" stroke-opacity="0.000" class="guide background" id="img-f2ed6039-15">
        <g transform="translate(86.11,40.55)" id="img-f2ed6039-16">
          <path d="M-66.14,-29.61 L 66.14 -29.61 66.14 29.61 -66.14 29.61 z" class="primitive"/>
        </g>
      </g>
      <g class="guide ygridlines xfixed" stroke-dasharray="0.5,0.5" stroke-width="0.2" stroke="#D0D0E0" id="img-f2ed6039-17">
        <g transform="translate(86.11,68.16)" id="img-f2ed6039-18">
          <path fill="none" d="M-66.14,0 L 66.14 0" class="primitive"/>
        </g>
        <g transform="translate(86.11,40.55)" id="img-f2ed6039-19">
          <path fill="none" d="M-66.14,0 L 66.14 0" class="primitive"/>
        </g>
        <g transform="translate(86.11,12.94)" id="img-f2ed6039-20">
          <path fill="none" d="M-66.14,0 L 66.14 0" class="primitive"/>
        </g>
      </g>
      <g class="guide xgridlines yfixed" stroke-dasharray="0.5,0.5" stroke-width="0.2" stroke="#D0D0E0" id="img-f2ed6039-21">
        <g transform="translate(38.86,40.55)" id="img-f2ed6039-22">
          <path fill="none" d="M0,-29.61 L 0 29.61" class="primitive"/>
        </g>
        <g transform="translate(57.76,40.55)" id="img-f2ed6039-23">
          <path fill="none" d="M0,-29.61 L 0 29.61" class="primitive"/>
        </g>
        <g transform="translate(76.66,40.55)" id="img-f2ed6039-24">
          <path fill="none" d="M0,-29.61 L 0 29.61" class="primitive"/>
        </g>
        <g transform="translate(95.55,40.55)" id="img-f2ed6039-25">
          <path fill="none" d="M0,-29.61 L 0 29.61" class="primitive"/>
        </g>
        <g transform="translate(114.45,40.55)" id="img-f2ed6039-26">
          <path fill="none" d="M0,-29.61 L 0 29.61" class="primitive"/>
        </g>
        <g transform="translate(133.35,40.55)" id="img-f2ed6039-27">
          <path fill="none" d="M0,-29.61 L 0 29.61" class="primitive"/>
        </g>
      </g>
      <g class="plotpanel" id="img-f2ed6039-28">
        <metadata>
          <boundingbox value="19.965000000000003mm 10.939999999999998mm 132.28166666666667mm 59.216666666666654mm"/>
          <unitbox value="0.5 1.036220947781467 7.0 -1.072441895562934"/>
        </metadata>
        <g shape-rendering="crispEdges" stroke-width="0.3" id="img-f2ed6039-29">
          <g stroke="#000000" stroke-opacity="0.000" class="geometry" fill="#ADD8E6" id="img-f2ed6039-30">
            <g transform="translate(29.41,40.55)" id="img-f2ed6039-31">
              <path d="M-6.65,-27.61 L 6.65 -27.61 6.65 27.61 -6.65 27.61 z" class="primitive"/>
            </g>
            <g transform="translate(48.31,40.55)" id="img-f2ed6039-32">
              <path d="M-6.65,-27.61 L 6.65 -27.61 6.65 27.61 -6.65 27.61 z" class="primitive"/>
            </g>
            <g transform="translate(67.21,40.55)" id="img-f2ed6039-33">
              <path d="M-6.65,-27.61 L 6.65 -27.61 6.65 27.61 -6.65 27.61 z" class="primitive"/>
            </g>
            <g transform="translate(86.11,40.55)" id="img-f2ed6039-34">
              <path d="M-6.65,-27.61 L 6.65 -27.61 6.65 27.61 -6.65 27.61 z" class="primitive"/>
            </g>
            <g transform="translate(105,40.55)" id="img-f2ed6039-35">
              <path d="M-6.65,-27.61 L 6.65 -27.61 6.65 27.61 -6.65 27.61 z" class="primitive"/>
            </g>
            <g transform="translate(123.9,40.55)" id="img-f2ed6039-36">
              <path d="M-6.65,-27.61 L 6.65 -27.61 6.65 27.61 -6.65 27.61 z" class="primitive"/>
            </g>
            <g transform="translate(142.8,40.55)" id="img-f2ed6039-37">
              <path d="M-6.65,-27.61 L 6.65 -27.61 6.65 27.61 -6.65 27.61 z" class="primitive"/>
            </g>
          </g>
        </g>
        <g shape-rendering="crispEdges" stroke-width="0.3" id="img-f2ed6039-38">
          <g stroke="#000000" class="geometry" fill="#FFFFFF" id="img-f2ed6039-39">
            <g transform="translate(29.41,40.55)" id="img-f2ed6039-40">
              <path d="M-4.45,-27.61 L 4.45 -27.61 4.45 27.61 -4.45 27.61 z" class="primitive"/>
            </g>
            <g transform="translate(48.31,44.48)" id="img-f2ed6039-41">
              <path d="M-4.45,-23.68 L 4.45 -23.68 4.45 23.68 -4.45 23.68 z" class="primitive"/>
            </g>
            <g transform="translate(67.21,40.55)" id="img-f2ed6039-42">
              <path d="M-4.45,-27.61 L 4.45 -27.61 4.45 27.61 -4.45 27.61 z" class="primitive"/>
            </g>
            <g transform="translate(86.11,40.55)" id="img-f2ed6039-43">
              <path d="M-4.45,-27.61 L 4.45 -27.61 4.45 27.61 -4.45 27.61 z" class="primitive"/>
            </g>
            <g transform="translate(105,40.55)" id="img-f2ed6039-44">
              <path d="M-4.45,-27.61 L 4.45 -27.61 4.45 27.61 -4.45 27.61 z" class="primitive"/>
            </g>
            <g transform="translate(123.9,40.74)" id="img-f2ed6039-45">
              <path d="M-4.45,-27.42 L 4.45 -27.42 4.45 27.42 -4.45 27.42 z" class="primitive"/>
            </g>
            <g transform="translate(142.8,47.42)" id="img-f2ed6039-46">
              <path d="M-4.45,-20.74 L 4.45 -20.74 4.45 20.74 -4.45 20.74 z" class="primitive"/>
            </g>
          </g>
        </g>
        <g class="geometry" stroke="#000000" stroke-opacity="0.000" fill="#000000" font-size="3.53" font-family="Palatino" id="img-f2ed6039-47">
          <g class="marker" id="img-f2ed6039-48">
            <g transform="translate(29.41,12.94)" id="img-f2ed6039-49">
              <g class="primitive">
                <text text-anchor="middle" dy="0.6em" transform="translate(0,1.9)">0.99</text>
              </g>
            </g>
            <g transform="translate(48.31,20.8)" id="img-f2ed6039-50">
              <g class="primitive">
                <text text-anchor="middle" dy="0.6em" transform="translate(0,1.9)">0.85</text>
              </g>
            </g>
            <g transform="translate(67.21,12.94)" id="img-f2ed6039-51">
              <g class="primitive">
                <text text-anchor="middle" dy="0.6em" transform="translate(0,1.9)">1.00</text>
              </g>
            </g>
            <g transform="translate(86.11,12.94)" id="img-f2ed6039-52">
              <g class="primitive">
                <text text-anchor="middle" dy="0.6em" transform="translate(0,1.9)">0.99</text>
              </g>
            </g>
            <g transform="translate(105,12.94)" id="img-f2ed6039-53">
              <g class="primitive">
                <text text-anchor="middle" dy="0.6em" transform="translate(0,1.9)">1.00</text>
              </g>
            </g>
            <g transform="translate(123.9,13.33)" id="img-f2ed6039-54">
              <g class="primitive">
                <text text-anchor="middle" dy="0.6em" transform="translate(0,1.9)">0.99</text>
              </g>
            </g>
            <g transform="translate(142.8,26.67)" id="img-f2ed6039-55">
              <g class="primitive">
                <text text-anchor="middle" dy="0.6em" transform="translate(0,1.9)">0.75</text>
              </g>
            </g>
          </g>
        </g>
      </g>
    </g>
  </g>
  <g class="guide ylabels" font-size="3.53" font-family="'PT Sans Caption','Helvetica Neue','Helvetica',sans-serif" fill="#000000" id="img-f2ed6039-56">
    <g transform="translate(18.96,68.16)" id="img-f2ed6039-57">
      <g class="primitive">
        <text text-anchor="end" dy="0.35em">0.0</text>
      </g>
    </g>
    <g transform="translate(18.96,40.55)" id="img-f2ed6039-58">
      <g class="primitive">
        <text text-anchor="end" dy="0.35em">0.5</text>
      </g>
    </g>
    <g transform="translate(18.96,12.94)" id="img-f2ed6039-59">
      <g class="primitive">
        <text text-anchor="end" dy="0.35em">1.0</text>
      </g>
    </g>
  </g>
  <g font-size="4.23" font-family="Palatino" fill="#000000" stroke="#000000" stroke-opacity="0.000" id="img-f2ed6039-60">
    <g transform="translate(8.97,38.55)" id="img-f2ed6039-61">
      <g class="primitive">
        <text text-anchor="middle" dy="0.35em" transform="rotate(-90,0, 2)">Objective Value, relative to LP</text>
      </g>
    </g>
  </g>
  <g font-size="4.23" font-family="Palatino" fill="#000000" stroke="#000000" stroke-opacity="0.000" id="img-f2ed6039-62">
    <g transform="translate(86.11,5)" id="img-f2ed6039-63">
      <g class="primitive">
        <text text-anchor="middle" dy="0.6em">Objective values, comparison of LP (2) and MIP (3)</text>
      </g>
    </g>
  </g>
</g>
<defs>
  <clipPath id="img-f2ed6039-13">
    <path d="M19.97,10.94 L 152.25 10.94 152.25 70.16 19.97 70.16" />
  </clipPath>
</defs>
</svg>
