<?xml version="1.0" encoding="UTF-8"?>
<svg xmlns="http://www.w3.org/2000/svg"
     xmlns:xlink="http://www.w3.org/1999/xlink"
     xmlns:gadfly="http://www.gadflyjl.org/ns"
     version="1.2"
     width="309.88mm" height="157.48mm" viewBox="0 0 309.88 157.48"
     stroke="none"
     fill="#000000"
     stroke-width="0.3"
     font-size="3.88"
>
<defs>
  <marker id="arrow" markerWidth="15" markerHeight="7" refX="5" refY="3.5" orient="auto" markerUnits="strokeWidth">
    <path d="M0,0 L15,3.5 L0,7 z" stroke="context-stroke" fill="context-stroke"/>
  </marker>
</defs>
<g class="plotroot xscalable yscalable" id="img-18521e5d-1">
  <g font-size="4.23" font-family="Palatino" fill="#564A55" stroke="#000000" stroke-opacity="0.000" id="img-18521e5d-2">
    <g transform="translate(162.42,145.54)">
      <g class="primitive">
        <text text-anchor="middle" dy="0.6em">Line</text>
      </g>
    </g>
  </g>
  <g class="guide xlabels" font-size="3.18" font-family="'PT Sans Caption','Helvetica Neue','Helvetica',sans-serif" fill="#6C606B" id="img-18521e5d-3">
    <g transform="translate(21.96,138.53)">
      <g class="primitive">
        <text text-anchor="middle" dy="0.6em">0</text>
      </g>
    </g>
    <g transform="translate(62.09,138.53)">
      <g class="primitive">
        <text text-anchor="middle" dy="0.6em">30</text>
      </g>
    </g>
    <g transform="translate(102.22,138.53)">
      <g class="primitive">
        <text text-anchor="middle" dy="0.6em">60</text>
      </g>
    </g>
    <g transform="translate(142.35,138.53)">
      <g class="primitive">
        <text text-anchor="middle" dy="0.6em">90</text>
      </g>
    </g>
    <g transform="translate(182.48,138.53)">
      <g class="primitive">
        <text text-anchor="middle" dy="0.6em">120</text>
      </g>
    </g>
    <g transform="translate(222.62,138.53)">
      <g class="primitive">
        <text text-anchor="middle" dy="0.6em">150</text>
      </g>
    </g>
    <g transform="translate(262.75,138.53)">
      <g class="primitive">
        <text text-anchor="middle" dy="0.6em">180</text>
      </g>
    </g>
    <g transform="translate(302.88,138.53)">
      <g class="primitive">
        <text text-anchor="middle" dy="0.6em">210</text>
      </g>
    </g>
  </g>
  <g clip-path="url(#img-18521e5d-4)">
    <g id="img-18521e5d-5">
      <g pointer-events="visible" fill="#000000" fill-opacity="0.000" stroke="#000000" stroke-opacity="0.000" class="guide background" id="img-18521e5d-6">
        <g transform="translate(162.42,74.24)" id="img-18521e5d-7">
          <path d="M-142.46,-63.3 L 142.46 -63.3 142.46 63.3 -142.46 63.3 z" class="primitive"/>
        </g>
      </g>
      <g class="guide ygridlines xfixed" stroke-dasharray="0.5,0.5" stroke-width="0.2" stroke="#D0D0E0" id="img-18521e5d-8">
        <g transform="translate(162.42,135.53)" id="img-18521e5d-9">
          <path fill="none" d="M-142.46,0 L 142.46 0" class="primitive"/>
        </g>
        <g transform="translate(162.42,74.24)" id="img-18521e5d-10">
          <path fill="none" d="M-142.46,0 L 142.46 0" class="primitive"/>
        </g>
        <g transform="translate(162.42,12.94)" id="img-18521e5d-11">
          <path fill="none" d="M-142.46,0 L 142.46 0" class="primitive"/>
        </g>
      </g>
      <g class="guide xgridlines yfixed" stroke-dasharray="0.5,0.5" stroke-width="0.2" stroke="#D0D0E0" id="img-18521e5d-12">
        <g transform="translate(21.96,74.24)" id="img-18521e5d-13">
          <path fill="none" d="M0,-63.3 L 0 63.3" class="primitive"/>
        </g>
        <g transform="translate(62.09,74.24)" id="img-18521e5d-14">
          <path fill="none" d="M0,-63.3 L 0 63.3" class="primitive"/>
        </g>
        <g transform="translate(102.22,74.24)" id="img-18521e5d-15">
          <path fill="none" d="M0,-63.3 L 0 63.3" class="primitive"/>
        </g>
        <g transform="translate(142.35,74.24)" id="img-18521e5d-16">
          <path fill="none" d="M0,-63.3 L 0 63.3" class="primitive"/>
        </g>
        <g transform="translate(182.48,74.24)" id="img-18521e5d-17">
          <path fill="none" d="M0,-63.3 L 0 63.3" class="primitive"/>
        </g>
        <g transform="translate(222.62,74.24)" id="img-18521e5d-18">
          <path fill="none" d="M0,-63.3 L 0 63.3" class="primitive"/>
        </g>
        <g transform="translate(262.75,74.24)" id="img-18521e5d-19">
          <path fill="none" d="M0,-63.3 L 0 63.3" class="primitive"/>
        </g>
        <g transform="translate(302.88,74.24)" id="img-18521e5d-20">
          <path fill="none" d="M0,-63.3 L 0 63.3" class="primitive"/>
        </g>
      </g>
      <g class="plotpanel" id="img-18521e5d-21">
        <metadata>
          <boundingbox value="19.957499999999982mm 10.940000000000012mm 284.92249999999996mm 126.59249999999999mm"/>
          <unitbox value="-1.4950742642543766 51.63142117176826 212.99014852850877 -103.2628423435365"/>
        </metadata>
        <g shape-rendering="crispEdges" stroke-width="0.3" id="img-18521e5d-22">
          <g stroke="#000000" stroke-opacity="0.000" class="geometry" fill="#000000" id="img-18521e5d-23">
            <g transform="translate(23.3,74.24)" id="img-18521e5d-24">
              <path d="M-0.57,-0 L 0.57 -0 0.57 0 -0.57 0 z" class="primitive"/>
            </g>
            <g transform="translate(24.63,74.24)" id="img-18521e5d-25">
              <path d="M-0.57,-0 L 0.57 -0 0.57 0 -0.57 0 z" class="primitive"/>
            </g>
            <g transform="translate(25.97,74.24)" id="img-18521e5d-26">
              <path d="M-0.57,-0 L 0.57 -0 0.57 0 -0.57 0 z" class="primitive"/>
            </g>
            <g transform="translate(27.31,74.24)" id="img-18521e5d-27">
              <path d="M-0.57,-0 L 0.57 -0 0.57 0 -0.57 0 z" class="primitive"/>
            </g>
            <g transform="translate(28.65,74.24)" id="img-18521e5d-28">
              <path d="M-0.57,-0 L 0.57 -0 0.57 0 -0.57 0 z" class="primitive"/>
            </g>
            <g transform="translate(29.98,74.24)" id="img-18521e5d-29">
              <path d="M-0.57,-0 L 0.57 -0 0.57 0 -0.57 0 z" class="primitive"/>
            </g>
            <g transform="translate(31.32,74.24)" id="img-18521e5d-30">
              <path d="M-0.57,-0 L 0.57 -0 0.57 0 -0.57 0 z" class="primitive"/>
            </g>
            <g transform="translate(32.66,74.24)" id="img-18521e5d-31">
              <path d="M-0.57,-0 L 0.57 -0 0.57 0 -0.57 0 z" class="primitive"/>
            </g>
            <g transform="translate(34,74.24)" id="img-18521e5d-32">
              <path d="M-0.57,-0 L 0.57 -0 0.57 0 -0.57 0 z" class="primitive"/>
            </g>
            <g transform="translate(35.33,74.24)" id="img-18521e5d-33">
              <path d="M-0.57,-0 L 0.57 -0 0.57 0 -0.57 0 z" class="primitive"/>
            </g>
            <g transform="translate(36.67,74.24)" id="img-18521e5d-34">
              <path d="M-0.57,-0 L 0.57 -0 0.57 0 -0.57 0 z" class="primitive"/>
            </g>
            <g transform="translate(38.01,74.24)" id="img-18521e5d-35">
              <path d="M-0.57,-0 L 0.57 -0 0.57 0 -0.57 0 z" class="primitive"/>
            </g>
            <g transform="translate(39.35,74.24)" id="img-18521e5d-36">
              <path d="M-0.57,-0 L 0.57 -0 0.57 0 -0.57 0 z" class="primitive"/>
            </g>
            <g transform="translate(40.69,74.24)" id="img-18521e5d-37">
              <path d="M-0.57,-0 L 0.57 -0 0.57 0 -0.57 0 z" class="primitive"/>
            </g>
            <g transform="translate(42.02,74.24)" id="img-18521e5d-38">
              <path d="M-0.57,-0 L 0.57 -0 0.57 0 -0.57 0 z" class="primitive"/>
            </g>
            <g transform="translate(43.36,74.24)" id="img-18521e5d-39">
              <path d="M-0.57,-0 L 0.57 -0 0.57 0 -0.57 0 z" class="primitive"/>
            </g>
            <g transform="translate(44.7,74.24)" id="img-18521e5d-40">
              <path d="M-0.57,-0 L 0.57 -0 0.57 0 -0.57 0 z" class="primitive"/>
            </g>
            <g transform="translate(46.04,74.24)" id="img-18521e5d-41">
              <path d="M-0.57,-0 L 0.57 -0 0.57 0 -0.57 0 z" class="primitive"/>
            </g>
            <g transform="translate(47.37,74.24)" id="img-18521e5d-42">
              <path d="M-0.57,-0 L 0.57 -0 0.57 0 -0.57 0 z" class="primitive"/>
            </g>
            <g transform="translate(48.71,74.24)" id="img-18521e5d-43">
              <path d="M-0.57,-0 L 0.57 -0 0.57 0 -0.57 0 z" class="primitive"/>
            </g>
            <g transform="translate(50.05,74.24)" id="img-18521e5d-44">
              <path d="M-0.57,-0 L 0.57 -0 0.57 0 -0.57 0 z" class="primitive"/>
            </g>
            <g transform="translate(51.39,74.24)" id="img-18521e5d-45">
              <path d="M-0.57,-0 L 0.57 -0 0.57 0 -0.57 0 z" class="primitive"/>
            </g>
            <g transform="translate(52.73,74.24)" id="img-18521e5d-46">
              <path d="M-0.57,-0 L 0.57 -0 0.57 0 -0.57 0 z" class="primitive"/>
            </g>
            <g transform="translate(54.06,74.24)" id="img-18521e5d-47">
              <path d="M-0.57,-0 L 0.57 -0 0.57 0 -0.57 0 z" class="primitive"/>
            </g>
            <g transform="translate(55.4,74.24)" id="img-18521e5d-48">
              <path d="M-0.57,-0 L 0.57 -0 0.57 0 -0.57 0 z" class="primitive"/>
            </g>
            <g transform="translate(56.74,74.24)" id="img-18521e5d-49">
              <path d="M-0.57,-0 L 0.57 -0 0.57 0 -0.57 0 z" class="primitive"/>
            </g>
            <g transform="translate(58.08,74.24)" id="img-18521e5d-50">
              <path d="M-0.57,-0 L 0.57 -0 0.57 0 -0.57 0 z" class="primitive"/>
            </g>
            <g transform="translate(59.41,74.24)" id="img-18521e5d-51">
              <path d="M-0.57,-0 L 0.57 -0 0.57 0 -0.57 0 z" class="primitive"/>
            </g>
            <g transform="translate(60.75,74.24)" id="img-18521e5d-52">
              <path d="M-0.57,-0 L 0.57 -0 0.57 0 -0.57 0 z" class="primitive"/>
            </g>
            <g transform="translate(62.09,74.24)" id="img-18521e5d-53">
              <path d="M-0.57,-0 L 0.57 -0 0.57 0 -0.57 0 z" class="primitive"/>
            </g>
            <g transform="translate(63.43,74.24)" id="img-18521e5d-54">
              <path d="M-0.57,-0 L 0.57 -0 0.57 0 -0.57 0 z" class="primitive"/>
            </g>
            <g transform="translate(64.76,74.24)" id="img-18521e5d-55">
              <path d="M-0.57,-0 L 0.57 -0 0.57 0 -0.57 0 z" class="primitive"/>
            </g>
            <g transform="translate(66.1,74.24)" id="img-18521e5d-56">
              <path d="M-0.57,-0 L 0.57 -0 0.57 0 -0.57 0 z" class="primitive"/>
            </g>
            <g transform="translate(67.44,74.24)" id="img-18521e5d-57">
              <path d="M-0.57,-0 L 0.57 -0 0.57 0 -0.57 0 z" class="primitive"/>
            </g>
            <g transform="translate(68.78,84.51)" id="img-18521e5d-58">
              <path d="M-0.57,-10.27 L 0.57 -10.27 0.57 10.27 -0.57 10.27 z" class="primitive"/>
            </g>
            <g transform="translate(70.12,74.24)" id="img-18521e5d-59">
              <path d="M-0.57,-0 L 0.57 -0 0.57 0 -0.57 0 z" class="primitive"/>
            </g>
            <g transform="translate(71.45,74.24)" id="img-18521e5d-60">
              <path d="M-0.57,-0 L 0.57 -0 0.57 0 -0.57 0 z" class="primitive"/>
            </g>
            <g transform="translate(72.79,74.24)" id="img-18521e5d-61">
              <path d="M-0.57,-0 L 0.57 -0 0.57 0 -0.57 0 z" class="primitive"/>
            </g>
            <g transform="translate(74.13,74.24)" id="img-18521e5d-62">
              <path d="M-0.57,-0 L 0.57 -0 0.57 0 -0.57 0 z" class="primitive"/>
            </g>
            <g transform="translate(75.47,74.24)" id="img-18521e5d-63">
              <path d="M-0.57,-0 L 0.57 -0 0.57 0 -0.57 0 z" class="primitive"/>
            </g>
            <g transform="translate(76.8,74.24)" id="img-18521e5d-64">
              <path d="M-0.57,-0 L 0.57 -0 0.57 0 -0.57 0 z" class="primitive"/>
            </g>
            <g transform="translate(78.14,74.24)" id="img-18521e5d-65">
              <path d="M-0.57,-0 L 0.57 -0 0.57 0 -0.57 0 z" class="primitive"/>
            </g>
            <g transform="translate(79.48,74.24)" id="img-18521e5d-66">
              <path d="M-0.57,-0 L 0.57 -0 0.57 0 -0.57 0 z" class="primitive"/>
            </g>
            <g transform="translate(80.82,74.24)" id="img-18521e5d-67">
              <path d="M-0.57,-0 L 0.57 -0 0.57 0 -0.57 0 z" class="primitive"/>
            </g>
            <g transform="translate(82.16,74.24)" id="img-18521e5d-68">
              <path d="M-0.57,-0 L 0.57 -0 0.57 0 -0.57 0 z" class="primitive"/>
            </g>
            <g transform="translate(83.49,74.24)" id="img-18521e5d-69">
              <path d="M-0.57,-0 L 0.57 -0 0.57 0 -0.57 0 z" class="primitive"/>
            </g>
            <g transform="translate(84.83,63.96)" id="img-18521e5d-70">
              <path d="M-0.57,-10.27 L 0.57 -10.27 0.57 10.27 -0.57 10.27 z" class="primitive"/>
            </g>
            <g transform="translate(86.17,63.96)" id="img-18521e5d-71">
              <path d="M-0.57,-10.27 L 0.57 -10.27 0.57 10.27 -0.57 10.27 z" class="primitive"/>
            </g>
            <g transform="translate(87.51,74.24)" id="img-18521e5d-72">
              <path d="M-0.57,-0 L 0.57 -0 0.57 0 -0.57 0 z" class="primitive"/>
            </g>
            <g transform="translate(88.84,74.24)" id="img-18521e5d-73">
              <path d="M-0.57,-0 L 0.57 -0 0.57 0 -0.57 0 z" class="primitive"/>
            </g>
            <g transform="translate(90.18,74.24)" id="img-18521e5d-74">
              <path d="M-0.57,-0 L 0.57 -0 0.57 0 -0.57 0 z" class="primitive"/>
            </g>
            <g transform="translate(91.52,74.24)" id="img-18521e5d-75">
              <path d="M-0.57,-0 L 0.57 -0 0.57 0 -0.57 0 z" class="primitive"/>
            </g>
            <g transform="translate(92.86,74.24)" id="img-18521e5d-76">
              <path d="M-0.57,-0 L 0.57 -0 0.57 0 -0.57 0 z" class="primitive"/>
            </g>
            <g transform="translate(94.19,74.24)" id="img-18521e5d-77">
              <path d="M-0.57,-0 L 0.57 -0 0.57 0 -0.57 0 z" class="primitive"/>
            </g>
            <g transform="translate(95.53,74.24)" id="img-18521e5d-78">
              <path d="M-0.57,-0 L 0.57 -0 0.57 0 -0.57 0 z" class="primitive"/>
            </g>
            <g transform="translate(96.87,74.24)" id="img-18521e5d-79">
              <path d="M-0.57,-0 L 0.57 -0 0.57 0 -0.57 0 z" class="primitive"/>
            </g>
            <g transform="translate(98.21,74.24)" id="img-18521e5d-80">
              <path d="M-0.57,-0 L 0.57 -0 0.57 0 -0.57 0 z" class="primitive"/>
            </g>
            <g transform="translate(99.55,74.24)" id="img-18521e5d-81">
              <path d="M-0.57,-0 L 0.57 -0 0.57 0 -0.57 0 z" class="primitive"/>
            </g>
            <g transform="translate(100.88,74.24)" id="img-18521e5d-82">
              <path d="M-0.57,-0 L 0.57 -0 0.57 0 -0.57 0 z" class="primitive"/>
            </g>
            <g transform="translate(102.22,55.07)" id="img-18521e5d-83">
              <path d="M-0.57,-19.17 L 0.57 -19.17 0.57 19.17 -0.57 19.17 z" class="primitive"/>
            </g>
            <g transform="translate(103.56,93.4)" id="img-18521e5d-84">
              <path d="M-0.57,-19.17 L 0.57 -19.17 0.57 19.17 -0.57 19.17 z" class="primitive"/>
            </g>
            <g transform="translate(104.9,93.4)" id="img-18521e5d-85">
              <path d="M-0.57,-19.17 L 0.57 -19.17 0.57 19.17 -0.57 19.17 z" class="primitive"/>
            </g>
            <g transform="translate(106.23,74.24)" id="img-18521e5d-86">
              <path d="M-0.57,-0 L 0.57 -0 0.57 0 -0.57 0 z" class="primitive"/>
            </g>
            <g transform="translate(107.57,74.24)" id="img-18521e5d-87">
              <path d="M-0.57,-0 L 0.57 -0 0.57 0 -0.57 0 z" class="primitive"/>
            </g>
            <g transform="translate(108.91,78.27)" id="img-18521e5d-88">
              <path d="M-0.57,-4.04 L 0.57 -4.04 0.57 4.04 -0.57 4.04 z" class="primitive"/>
            </g>
            <g transform="translate(110.25,95.56)" id="img-18521e5d-89">
              <path d="M-0.57,-21.33 L 0.57 -21.33 0.57 21.33 -0.57 21.33 z" class="primitive"/>
            </g>
            <g transform="translate(111.59,95.56)" id="img-18521e5d-90">
              <path d="M-0.57,-21.33 L 0.57 -21.33 0.57 21.33 -0.57 21.33 z" class="primitive"/>
            </g>
            <g transform="translate(112.92,95.56)" id="img-18521e5d-91">
              <path d="M-0.57,-21.33 L 0.57 -21.33 0.57 21.33 -0.57 21.33 z" class="primitive"/>
            </g>
            <g transform="translate(114.26,78.27)" id="img-18521e5d-92">
              <path d="M-0.57,-4.04 L 0.57 -4.04 0.57 4.04 -0.57 4.04 z" class="primitive"/>
            </g>
            <g transform="translate(115.6,74.24)" id="img-18521e5d-93">
              <path d="M-0.57,-0 L 0.57 -0 0.57 0 -0.57 0 z" class="primitive"/>
            </g>
            <g transform="translate(116.94,63.96)" id="img-18521e5d-94">
              <path d="M-0.57,-10.27 L 0.57 -10.27 0.57 10.27 -0.57 10.27 z" class="primitive"/>
            </g>
            <g transform="translate(118.27,74.24)" id="img-18521e5d-95">
              <path d="M-0.57,-0 L 0.57 -0 0.57 0 -0.57 0 z" class="primitive"/>
            </g>
            <g transform="translate(119.61,74.24)" id="img-18521e5d-96">
              <path d="M-0.57,-0 L 0.57 -0 0.57 0 -0.57 0 z" class="primitive"/>
            </g>
            <g transform="translate(120.95,74.24)" id="img-18521e5d-97">
              <path d="M-0.57,-0 L 0.57 -0 0.57 0 -0.57 0 z" class="primitive"/>
            </g>
            <g transform="translate(122.29,74.24)" id="img-18521e5d-98">
              <path d="M-0.57,-0 L 0.57 -0 0.57 0 -0.57 0 z" class="primitive"/>
            </g>
            <g transform="translate(123.62,74.24)" id="img-18521e5d-99">
              <path d="M-0.57,-0 L 0.57 -0 0.57 0 -0.57 0 z" class="primitive"/>
            </g>
            <g transform="translate(124.96,74.24)" id="img-18521e5d-100">
              <path d="M-0.57,-0 L 0.57 -0 0.57 0 -0.57 0 z" class="primitive"/>
            </g>
            <g transform="translate(126.3,74.24)" id="img-18521e5d-101">
              <path d="M-0.57,-0 L 0.57 -0 0.57 0 -0.57 0 z" class="primitive"/>
            </g>
            <g transform="translate(127.64,74.24)" id="img-18521e5d-102">
              <path d="M-0.57,-0 L 0.57 -0 0.57 0 -0.57 0 z" class="primitive"/>
            </g>
            <g transform="translate(128.98,74.24)" id="img-18521e5d-103">
              <path d="M-0.57,-0 L 0.57 -0 0.57 0 -0.57 0 z" class="primitive"/>
            </g>
            <g transform="translate(130.31,74.24)" id="img-18521e5d-104">
              <path d="M-0.57,-0 L 0.57 -0 0.57 0 -0.57 0 z" class="primitive"/>
            </g>
            <g transform="translate(131.65,63.41)" id="img-18521e5d-105">
              <path d="M-0.57,-10.82 L 0.57 -10.82 0.57 10.82 -0.57 10.82 z" class="primitive"/>
            </g>
            <g transform="translate(132.99,60.43)" id="img-18521e5d-106">
              <path d="M-0.57,-13.8 L 0.57 -13.8 0.57 13.8 -0.57 13.8 z" class="primitive"/>
            </g>
            <g transform="translate(134.33,69.09)" id="img-18521e5d-107">
              <path d="M-0.57,-5.15 L 0.57 -5.15 0.57 5.15 -0.57 5.15 z" class="primitive"/>
            </g>
            <g transform="translate(135.66,74.24)" id="img-18521e5d-108">
              <path d="M-0.57,-0 L 0.57 -0 0.57 0 -0.57 0 z" class="primitive"/>
            </g>
            <g transform="translate(137,50.95)" id="img-18521e5d-109">
              <path d="M-0.57,-23.29 L 0.57 -23.29 0.57 23.29 -0.57 23.29 z" class="primitive"/>
            </g>
            <g transform="translate(138.34,74.24)" id="img-18521e5d-110">
              <path d="M-0.57,-0 L 0.57 -0 0.57 0 -0.57 0 z" class="primitive"/>
            </g>
            <g transform="translate(139.68,74.24)" id="img-18521e5d-111">
              <path d="M-0.57,-0 L 0.57 -0 0.57 0 -0.57 0 z" class="primitive"/>
            </g>
            <g transform="translate(141.02,86.96)" id="img-18521e5d-112">
              <path d="M-0.57,-12.73 L 0.57 -12.73 0.57 12.73 -0.57 12.73 z" class="primitive"/>
            </g>
            <g transform="translate(142.35,74.24)" id="img-18521e5d-113">
              <path d="M-0.57,-0 L 0.57 -0 0.57 0 -0.57 0 z" class="primitive"/>
            </g>
            <g transform="translate(143.69,74.24)" id="img-18521e5d-114">
              <path d="M-0.57,-0 L 0.57 -0 0.57 0 -0.57 0 z" class="primitive"/>
            </g>
            <g transform="translate(145.03,74.24)" id="img-18521e5d-115">
              <path d="M-0.57,-0 L 0.57 -0 0.57 0 -0.57 0 z" class="primitive"/>
            </g>
            <g transform="translate(146.37,74.24)" id="img-18521e5d-116">
              <path d="M-0.57,-0 L 0.57 -0 0.57 0 -0.57 0 z" class="primitive"/>
            </g>
            <g transform="translate(147.7,48.31)" id="img-18521e5d-117">
              <path d="M-0.57,-25.92 L 0.57 -25.92 0.57 25.92 -0.57 25.92 z" class="primitive"/>
            </g>
            <g transform="translate(149.04,74.24)" id="img-18521e5d-118">
              <path d="M-0.57,-0 L 0.57 -0 0.57 0 -0.57 0 z" class="primitive"/>
            </g>
            <g transform="translate(150.38,74.24)" id="img-18521e5d-119">
              <path d="M-0.57,-0 L 0.57 -0 0.57 0 -0.57 0 z" class="primitive"/>
            </g>
            <g transform="translate(151.72,94.21)" id="img-18521e5d-120">
              <path d="M-0.57,-19.97 L 0.57 -19.97 0.57 19.97 -0.57 19.97 z" class="primitive"/>
            </g>
            <g transform="translate(153.05,74.24)" id="img-18521e5d-121">
              <path d="M-0.57,-0 L 0.57 -0 0.57 0 -0.57 0 z" class="primitive"/>
            </g>
            <g transform="translate(154.39,57.25)" id="img-18521e5d-122">
              <path d="M-0.57,-16.98 L 0.57 -16.98 0.57 16.98 -0.57 16.98 z" class="primitive"/>
            </g>
            <g transform="translate(155.73,74.24)" id="img-18521e5d-123">
              <path d="M-0.57,-0 L 0.57 -0 0.57 0 -0.57 0 z" class="primitive"/>
            </g>
            <g transform="translate(157.07,74.24)" id="img-18521e5d-124">
              <path d="M-0.57,-0 L 0.57 -0 0.57 0 -0.57 0 z" class="primitive"/>
            </g>
            <g transform="translate(158.41,61.51)" id="img-18521e5d-125">
              <path d="M-0.57,-12.73 L 0.57 -12.73 0.57 12.73 -0.57 12.73 z" class="primitive"/>
            </g>
            <g transform="translate(159.74,74.24)" id="img-18521e5d-126">
              <path d="M-0.57,-0 L 0.57 -0 0.57 0 -0.57 0 z" class="primitive"/>
            </g>
            <g transform="translate(161.08,74.24)" id="img-18521e5d-127">
              <path d="M-0.57,-0 L 0.57 -0 0.57 0 -0.57 0 z" class="primitive"/>
            </g>
            <g transform="translate(162.42,91.22)" id="img-18521e5d-128">
              <path d="M-0.57,-16.98 L 0.57 -16.98 0.57 16.98 -0.57 16.98 z" class="primitive"/>
            </g>
            <g transform="translate(163.76,74.24)" id="img-18521e5d-129">
              <path d="M-0.57,-0 L 0.57 -0 0.57 0 -0.57 0 z" class="primitive"/>
            </g>
            <g transform="translate(165.09,74.24)" id="img-18521e5d-130">
              <path d="M-0.57,-0 L 0.57 -0 0.57 0 -0.57 0 z" class="primitive"/>
            </g>
            <g transform="translate(166.43,74.24)" id="img-18521e5d-131">
              <path d="M-0.57,-0 L 0.57 -0 0.57 0 -0.57 0 z" class="primitive"/>
            </g>
            <g transform="translate(167.77,74.24)" id="img-18521e5d-132">
              <path d="M-0.57,-0 L 0.57 -0 0.57 0 -0.57 0 z" class="primitive"/>
            </g>
            <g transform="translate(169.11,61.51)" id="img-18521e5d-133">
              <path d="M-0.57,-12.73 L 0.57 -12.73 0.57 12.73 -0.57 12.73 z" class="primitive"/>
            </g>
            <g transform="translate(170.45,74.24)" id="img-18521e5d-134">
              <path d="M-0.57,-0 L 0.57 -0 0.57 0 -0.57 0 z" class="primitive"/>
            </g>
            <g transform="translate(171.78,74.24)" id="img-18521e5d-135">
              <path d="M-0.57,-0 L 0.57 -0 0.57 0 -0.57 0 z" class="primitive"/>
            </g>
            <g transform="translate(173.12,74.24)" id="img-18521e5d-136">
              <path d="M-0.57,-0 L 0.57 -0 0.57 0 -0.57 0 z" class="primitive"/>
            </g>
            <g transform="translate(174.46,74.24)" id="img-18521e5d-137">
              <path d="M-0.57,-0 L 0.57 -0 0.57 0 -0.57 0 z" class="primitive"/>
            </g>
            <g transform="translate(175.8,74.24)" id="img-18521e5d-138">
              <path d="M-0.57,-0 L 0.57 -0 0.57 0 -0.57 0 z" class="primitive"/>
            </g>
            <g transform="translate(177.13,74.24)" id="img-18521e5d-139">
              <path d="M-0.57,-0 L 0.57 -0 0.57 0 -0.57 0 z" class="primitive"/>
            </g>
            <g transform="translate(178.47,74.24)" id="img-18521e5d-140">
              <path d="M-0.57,-0 L 0.57 -0 0.57 0 -0.57 0 z" class="primitive"/>
            </g>
            <g transform="translate(179.81,61.51)" id="img-18521e5d-141">
              <path d="M-0.57,-12.73 L 0.57 -12.73 0.57 12.73 -0.57 12.73 z" class="primitive"/>
            </g>
            <g transform="translate(181.15,74.24)" id="img-18521e5d-142">
              <path d="M-0.57,-0 L 0.57 -0 0.57 0 -0.57 0 z" class="primitive"/>
            </g>
            <g transform="translate(182.48,74.24)" id="img-18521e5d-143">
              <path d="M-0.57,-0 L 0.57 -0 0.57 0 -0.57 0 z" class="primitive"/>
            </g>
            <g transform="translate(183.82,74.24)" id="img-18521e5d-144">
              <path d="M-0.57,-0 L 0.57 -0 0.57 0 -0.57 0 z" class="primitive"/>
            </g>
            <g transform="translate(185.16,74.24)" id="img-18521e5d-145">
              <path d="M-0.57,-0 L 0.57 -0 0.57 0 -0.57 0 z" class="primitive"/>
            </g>
            <g transform="translate(186.5,74.24)" id="img-18521e5d-146">
              <path d="M-0.57,-0 L 0.57 -0 0.57 0 -0.57 0 z" class="primitive"/>
            </g>
            <g transform="translate(187.84,74.24)" id="img-18521e5d-147">
              <path d="M-0.57,-0 L 0.57 -0 0.57 0 -0.57 0 z" class="primitive"/>
            </g>
            <g transform="translate(189.17,74.24)" id="img-18521e5d-148">
              <path d="M-0.57,-0 L 0.57 -0 0.57 0 -0.57 0 z" class="primitive"/>
            </g>
            <g transform="translate(190.51,74.24)" id="img-18521e5d-149">
              <path d="M-0.57,-0 L 0.57 -0 0.57 0 -0.57 0 z" class="primitive"/>
            </g>
            <g transform="translate(191.85,74.24)" id="img-18521e5d-150">
              <path d="M-0.57,-0 L 0.57 -0 0.57 0 -0.57 0 z" class="primitive"/>
            </g>
            <g transform="translate(193.19,74.24)" id="img-18521e5d-151">
              <path d="M-0.57,-0 L 0.57 -0 0.57 0 -0.57 0 z" class="primitive"/>
            </g>
            <g transform="translate(194.52,74.24)" id="img-18521e5d-152">
              <path d="M-0.57,-0 L 0.57 -0 0.57 0 -0.57 0 z" class="primitive"/>
            </g>
            <g transform="translate(195.86,61.51)" id="img-18521e5d-153">
              <path d="M-0.57,-12.73 L 0.57 -12.73 0.57 12.73 -0.57 12.73 z" class="primitive"/>
            </g>
            <g transform="translate(197.2,61.51)" id="img-18521e5d-154">
              <path d="M-0.57,-12.73 L 0.57 -12.73 0.57 12.73 -0.57 12.73 z" class="primitive"/>
            </g>
            <g transform="translate(198.54,61.51)" id="img-18521e5d-155">
              <path d="M-0.57,-12.73 L 0.57 -12.73 0.57 12.73 -0.57 12.73 z" class="primitive"/>
            </g>
            <g transform="translate(199.88,61.51)" id="img-18521e5d-156">
              <path d="M-0.57,-12.73 L 0.57 -12.73 0.57 12.73 -0.57 12.73 z" class="primitive"/>
            </g>
            <g transform="translate(201.21,61.51)" id="img-18521e5d-157">
              <path d="M-0.57,-12.73 L 0.57 -12.73 0.57 12.73 -0.57 12.73 z" class="primitive"/>
            </g>
            <g transform="translate(202.55,61.51)" id="img-18521e5d-158">
              <path d="M-0.57,-12.73 L 0.57 -12.73 0.57 12.73 -0.57 12.73 z" class="primitive"/>
            </g>
            <g transform="translate(203.89,61.51)" id="img-18521e5d-159">
              <path d="M-0.57,-12.73 L 0.57 -12.73 0.57 12.73 -0.57 12.73 z" class="primitive"/>
            </g>
            <g transform="translate(205.23,74.24)" id="img-18521e5d-160">
              <path d="M-0.57,-0 L 0.57 -0 0.57 0 -0.57 0 z" class="primitive"/>
            </g>
            <g transform="translate(206.56,74.24)" id="img-18521e5d-161">
              <path d="M-0.57,-0 L 0.57 -0 0.57 0 -0.57 0 z" class="primitive"/>
            </g>
            <g transform="translate(207.9,74.24)" id="img-18521e5d-162">
              <path d="M-0.57,-0 L 0.57 -0 0.57 0 -0.57 0 z" class="primitive"/>
            </g>
            <g transform="translate(209.24,74.24)" id="img-18521e5d-163">
              <path d="M-0.57,-0 L 0.57 -0 0.57 0 -0.57 0 z" class="primitive"/>
            </g>
            <g transform="translate(210.58,74.24)" id="img-18521e5d-164">
              <path d="M-0.57,-0 L 0.57 -0 0.57 0 -0.57 0 z" class="primitive"/>
            </g>
            <g transform="translate(211.91,74.24)" id="img-18521e5d-165">
              <path d="M-0.57,-0 L 0.57 -0 0.57 0 -0.57 0 z" class="primitive"/>
            </g>
            <g transform="translate(213.25,74.24)" id="img-18521e5d-166">
              <path d="M-0.57,-0 L 0.57 -0 0.57 0 -0.57 0 z" class="primitive"/>
            </g>
            <g transform="translate(214.59,74.24)" id="img-18521e5d-167">
              <path d="M-0.57,-0 L 0.57 -0 0.57 0 -0.57 0 z" class="primitive"/>
            </g>
            <g transform="translate(215.93,74.24)" id="img-18521e5d-168">
              <path d="M-0.57,-0 L 0.57 -0 0.57 0 -0.57 0 z" class="primitive"/>
            </g>
            <g transform="translate(217.27,74.24)" id="img-18521e5d-169">
              <path d="M-0.57,-0 L 0.57 -0 0.57 0 -0.57 0 z" class="primitive"/>
            </g>
            <g transform="translate(218.6,74.24)" id="img-18521e5d-170">
              <path d="M-0.57,-0 L 0.57 -0 0.57 0 -0.57 0 z" class="primitive"/>
            </g>
            <g transform="translate(219.94,74.24)" id="img-18521e5d-171">
              <path d="M-0.57,-0 L 0.57 -0 0.57 0 -0.57 0 z" class="primitive"/>
            </g>
            <g transform="translate(221.28,74.24)" id="img-18521e5d-172">
              <path d="M-0.57,-0 L 0.57 -0 0.57 0 -0.57 0 z" class="primitive"/>
            </g>
            <g transform="translate(222.62,74.24)" id="img-18521e5d-173">
              <path d="M-0.57,-0 L 0.57 -0 0.57 0 -0.57 0 z" class="primitive"/>
            </g>
            <g transform="translate(223.95,74.24)" id="img-18521e5d-174">
              <path d="M-0.57,-0 L 0.57 -0 0.57 0 -0.57 0 z" class="primitive"/>
            </g>
            <g transform="translate(225.29,74.24)" id="img-18521e5d-175">
              <path d="M-0.57,-0 L 0.57 -0 0.57 0 -0.57 0 z" class="primitive"/>
            </g>
            <g transform="translate(226.63,74.24)" id="img-18521e5d-176">
              <path d="M-0.57,-0 L 0.57 -0 0.57 0 -0.57 0 z" class="primitive"/>
            </g>
            <g transform="translate(227.97,74.24)" id="img-18521e5d-177">
              <path d="M-0.57,-0 L 0.57 -0 0.57 0 -0.57 0 z" class="primitive"/>
            </g>
            <g transform="translate(229.31,74.24)" id="img-18521e5d-178">
              <path d="M-0.57,-0 L 0.57 -0 0.57 0 -0.57 0 z" class="primitive"/>
            </g>
            <g transform="translate(230.64,69.09)" id="img-18521e5d-179">
              <path d="M-0.57,-5.15 L 0.57 -5.15 0.57 5.15 -0.57 5.15 z" class="primitive"/>
            </g>
            <g transform="translate(231.98,74.24)" id="img-18521e5d-180">
              <path d="M-0.57,-0 L 0.57 -0 0.57 0 -0.57 0 z" class="primitive"/>
            </g>
            <g transform="translate(233.32,74.24)" id="img-18521e5d-181">
              <path d="M-0.57,-0 L 0.57 -0 0.57 0 -0.57 0 z" class="primitive"/>
            </g>
            <g transform="translate(234.66,74.24)" id="img-18521e5d-182">
              <path d="M-0.57,-0 L 0.57 -0 0.57 0 -0.57 0 z" class="primitive"/>
            </g>
            <g transform="translate(235.99,74.24)" id="img-18521e5d-183">
              <path d="M-0.57,-0 L 0.57 -0 0.57 0 -0.57 0 z" class="primitive"/>
            </g>
            <g transform="translate(237.33,74.24)" id="img-18521e5d-184">
              <path d="M-0.57,-0 L 0.57 -0 0.57 0 -0.57 0 z" class="primitive"/>
            </g>
            <g transform="translate(238.67,74.24)" id="img-18521e5d-185">
              <path d="M-0.57,-0 L 0.57 -0 0.57 0 -0.57 0 z" class="primitive"/>
            </g>
            <g transform="translate(240.01,74.24)" id="img-18521e5d-186">
              <path d="M-0.57,-0 L 0.57 -0 0.57 0 -0.57 0 z" class="primitive"/>
            </g>
            <g transform="translate(241.34,74.24)" id="img-18521e5d-187">
              <path d="M-0.57,-0 L 0.57 -0 0.57 0 -0.57 0 z" class="primitive"/>
            </g>
            <g transform="translate(242.68,74.24)" id="img-18521e5d-188">
              <path d="M-0.57,-0 L 0.57 -0 0.57 0 -0.57 0 z" class="primitive"/>
            </g>
            <g transform="translate(244.02,74.24)" id="img-18521e5d-189">
              <path d="M-0.57,-0 L 0.57 -0 0.57 0 -0.57 0 z" class="primitive"/>
            </g>
            <g transform="translate(245.36,74.24)" id="img-18521e5d-190">
              <path d="M-0.57,-0 L 0.57 -0 0.57 0 -0.57 0 z" class="primitive"/>
            </g>
            <g transform="translate(246.7,74.24)" id="img-18521e5d-191">
              <path d="M-0.57,-0 L 0.57 -0 0.57 0 -0.57 0 z" class="primitive"/>
            </g>
            <g transform="translate(248.03,74.24)" id="img-18521e5d-192">
              <path d="M-0.57,-0 L 0.57 -0 0.57 0 -0.57 0 z" class="primitive"/>
            </g>
            <g transform="translate(249.37,63.96)" id="img-18521e5d-193">
              <path d="M-0.57,-10.27 L 0.57 -10.27 0.57 10.27 -0.57 10.27 z" class="primitive"/>
            </g>
            <g transform="translate(250.71,74.24)" id="img-18521e5d-194">
              <path d="M-0.57,-0 L 0.57 -0 0.57 0 -0.57 0 z" class="primitive"/>
            </g>
            <g transform="translate(252.05,74.24)" id="img-18521e5d-195">
              <path d="M-0.57,-0 L 0.57 -0 0.57 0 -0.57 0 z" class="primitive"/>
            </g>
            <g transform="translate(253.38,74.24)" id="img-18521e5d-196">
              <path d="M-0.57,-0 L 0.57 -0 0.57 0 -0.57 0 z" class="primitive"/>
            </g>
            <g transform="translate(254.72,74.24)" id="img-18521e5d-197">
              <path d="M-0.57,-0 L 0.57 -0 0.57 0 -0.57 0 z" class="primitive"/>
            </g>
            <g transform="translate(256.06,74.24)" id="img-18521e5d-198">
              <path d="M-0.57,-0 L 0.57 -0 0.57 0 -0.57 0 z" class="primitive"/>
            </g>
            <g transform="translate(257.4,74.24)" id="img-18521e5d-199">
              <path d="M-0.57,-0 L 0.57 -0 0.57 0 -0.57 0 z" class="primitive"/>
            </g>
            <g transform="translate(258.74,74.24)" id="img-18521e5d-200">
              <path d="M-0.57,-0 L 0.57 -0 0.57 0 -0.57 0 z" class="primitive"/>
            </g>
            <g transform="translate(260.07,74.24)" id="img-18521e5d-201">
              <path d="M-0.57,-0 L 0.57 -0 0.57 0 -0.57 0 z" class="primitive"/>
            </g>
            <g transform="translate(261.41,74.24)" id="img-18521e5d-202">
              <path d="M-0.57,-0 L 0.57 -0 0.57 0 -0.57 0 z" class="primitive"/>
            </g>
            <g transform="translate(262.75,94.21)" id="img-18521e5d-203">
              <path d="M-0.57,-19.97 L 0.57 -19.97 0.57 19.97 -0.57 19.97 z" class="primitive"/>
            </g>
            <g transform="translate(264.09,74.24)" id="img-18521e5d-204">
              <path d="M-0.57,-0 L 0.57 -0 0.57 0 -0.57 0 z" class="primitive"/>
            </g>
            <g transform="translate(265.42,74.24)" id="img-18521e5d-205">
              <path d="M-0.57,-0 L 0.57 -0 0.57 0 -0.57 0 z" class="primitive"/>
            </g>
            <g transform="translate(266.76,100.16)" id="img-18521e5d-206">
              <path d="M-0.57,-25.92 L 0.57 -25.92 0.57 25.92 -0.57 25.92 z" class="primitive"/>
            </g>
            <g transform="translate(268.1,61.51)" id="img-18521e5d-207">
              <path d="M-0.57,-12.73 L 0.57 -12.73 0.57 12.73 -0.57 12.73 z" class="primitive"/>
            </g>
            <g transform="translate(269.44,74.24)" id="img-18521e5d-208">
              <path d="M-0.57,-0 L 0.57 -0 0.57 0 -0.57 0 z" class="primitive"/>
            </g>
            <g transform="translate(270.77,74.24)" id="img-18521e5d-209">
              <path d="M-0.57,-0 L 0.57 -0 0.57 0 -0.57 0 z" class="primitive"/>
            </g>
            <g transform="translate(272.11,74.24)" id="img-18521e5d-210">
              <path d="M-0.57,-0 L 0.57 -0 0.57 0 -0.57 0 z" class="primitive"/>
            </g>
            <g transform="translate(273.45,74.24)" id="img-18521e5d-211">
              <path d="M-0.57,-0 L 0.57 -0 0.57 0 -0.57 0 z" class="primitive"/>
            </g>
            <g transform="translate(274.79,61.51)" id="img-18521e5d-212">
              <path d="M-0.57,-12.73 L 0.57 -12.73 0.57 12.73 -0.57 12.73 z" class="primitive"/>
            </g>
            <g transform="translate(276.13,61.51)" id="img-18521e5d-213">
              <path d="M-0.57,-12.73 L 0.57 -12.73 0.57 12.73 -0.57 12.73 z" class="primitive"/>
            </g>
            <g transform="translate(277.46,74.24)" id="img-18521e5d-214">
              <path d="M-0.57,-0 L 0.57 -0 0.57 0 -0.57 0 z" class="primitive"/>
            </g>
            <g transform="translate(278.8,74.24)" id="img-18521e5d-215">
              <path d="M-0.57,-0 L 0.57 -0 0.57 0 -0.57 0 z" class="primitive"/>
            </g>
            <g transform="translate(280.14,74.24)" id="img-18521e5d-216">
              <path d="M-0.57,-0 L 0.57 -0 0.57 0 -0.57 0 z" class="primitive"/>
            </g>
            <g transform="translate(281.48,74.24)" id="img-18521e5d-217">
              <path d="M-0.57,-0 L 0.57 -0 0.57 0 -0.57 0 z" class="primitive"/>
            </g>
            <g transform="translate(282.81,74.24)" id="img-18521e5d-218">
              <path d="M-0.57,-0 L 0.57 -0 0.57 0 -0.57 0 z" class="primitive"/>
            </g>
            <g transform="translate(284.15,74.24)" id="img-18521e5d-219">
              <path d="M-0.57,-0 L 0.57 -0 0.57 0 -0.57 0 z" class="primitive"/>
            </g>
            <g transform="translate(285.49,74.24)" id="img-18521e5d-220">
              <path d="M-0.57,-0 L 0.57 -0 0.57 0 -0.57 0 z" class="primitive"/>
            </g>
            <g transform="translate(286.83,74.24)" id="img-18521e5d-221">
              <path d="M-0.57,-0 L 0.57 -0 0.57 0 -0.57 0 z" class="primitive"/>
            </g>
            <g transform="translate(288.17,74.24)" id="img-18521e5d-222">
              <path d="M-0.57,-0 L 0.57 -0 0.57 0 -0.57 0 z" class="primitive"/>
            </g>
            <g transform="translate(289.5,74.24)" id="img-18521e5d-223">
              <path d="M-0.57,-0 L 0.57 -0 0.57 0 -0.57 0 z" class="primitive"/>
            </g>
            <g transform="translate(290.84,74.24)" id="img-18521e5d-224">
              <path d="M-0.57,-0 L 0.57 -0 0.57 0 -0.57 0 z" class="primitive"/>
            </g>
            <g transform="translate(292.18,74.24)" id="img-18521e5d-225">
              <path d="M-0.57,-0 L 0.57 -0 0.57 0 -0.57 0 z" class="primitive"/>
            </g>
            <g transform="translate(293.52,74.24)" id="img-18521e5d-226">
              <path d="M-0.57,-0 L 0.57 -0 0.57 0 -0.57 0 z" class="primitive"/>
            </g>
            <g transform="translate(294.85,74.24)" id="img-18521e5d-227">
              <path d="M-0.57,-0 L 0.57 -0 0.57 0 -0.57 0 z" class="primitive"/>
            </g>
            <g transform="translate(296.19,74.24)" id="img-18521e5d-228">
              <path d="M-0.57,-0 L 0.57 -0 0.57 0 -0.57 0 z" class="primitive"/>
            </g>
            <g transform="translate(297.53,74.24)" id="img-18521e5d-229">
              <path d="M-0.57,-0 L 0.57 -0 0.57 0 -0.57 0 z" class="primitive"/>
            </g>
            <g transform="translate(298.87,74.24)" id="img-18521e5d-230">
              <path d="M-0.57,-0 L 0.57 -0 0.57 0 -0.57 0 z" class="primitive"/>
            </g>
            <g transform="translate(300.2,74.24)" id="img-18521e5d-231">
              <path d="M-0.57,-0 L 0.57 -0 0.57 0 -0.57 0 z" class="primitive"/>
            </g>
            <g transform="translate(301.54,74.24)" id="img-18521e5d-232">
              <path d="M-0.57,-0 L 0.57 -0 0.57 0 -0.57 0 z" class="primitive"/>
            </g>
            <g transform="translate(302.88,74.24)" id="img-18521e5d-233">
              <path d="M-0.57,-0 L 0.57 -0 0.57 0 -0.57 0 z" class="primitive"/>
            </g>
          </g>
        </g>
      </g>
    </g>
  </g>
  <g class="guide ylabels" font-size="3.18" font-family="'PT Sans Caption','Helvetica Neue','Helvetica',sans-serif" fill="#6C606B" id="img-18521e5d-234">
    <g transform="translate(18.96,135.53)" id="img-18521e5d-235">
      <g class="primitive">
        <text text-anchor="end" dy="0.35em">-50</text>
      </g>
    </g>
    <g transform="translate(18.96,74.24)" id="img-18521e5d-236">
      <g class="primitive">
        <text text-anchor="end" dy="0.35em">0</text>
      </g>
    </g>
    <g transform="translate(18.96,12.94)" id="img-18521e5d-237">
      <g class="primitive">
        <text text-anchor="end" dy="0.35em">50</text>
      </g>
    </g>
  </g>
  <g font-size="4.23" font-family="Palatino" fill="#564A55" stroke="#000000" stroke-opacity="0.000" id="img-18521e5d-238">
    <g transform="translate(8.97,72.24)" id="img-18521e5d-239">
      <g class="primitive">
        <text text-anchor="middle" dy="0.35em" transform="rotate(-90,0, 2)">Line Status</text>
      </g>
    </g>
  </g>
  <g font-size="4.23" font-family="Palatino" fill="#564A55" stroke="#000000" stroke-opacity="0.000" id="img-18521e5d-240">
    <g transform="translate(162.42,5)" id="img-18521e5d-241">
      <g class="primitive">
        <text text-anchor="middle" dy="0.6em">Results, Operational Status of Lines</text>
      </g>
    </g>
  </g>
</g>
<defs>
  <clipPath id="img-18521e5d-4">
    <path d="M19.96,10.94 L 304.88 10.94 304.88 137.53 19.96 137.53" />
  </clipPath>
</defs>
</svg>
