<?xml version="1.0" encoding="UTF-8"?>
<svg xmlns="http://www.w3.org/2000/svg"
     xmlns:xlink="http://www.w3.org/1999/xlink"
     xmlns:gadfly="http://www.gadflyjl.org/ns"
     version="1.2"
     width="309.88mm" height="81.28mm" viewBox="0 0 309.88 81.28"
     stroke="none"
     fill="#000000"
     stroke-width="0.3"
     font-size="3.88"
>
<defs>
  <marker id="arrow" markerWidth="15" markerHeight="7" refX="5" refY="3.5" orient="auto" markerUnits="strokeWidth">
    <path d="M0,0 L15,3.5 L0,7 z" stroke="context-stroke" fill="context-stroke"/>
  </marker>
</defs>
<g class="plotroot xscalable yscalable" id="img-1d1aad14-1">
  <g font-size="4.23" font-family="Palatino" fill="#564A55" stroke="#000000" stroke-opacity="0.000" id="img-1d1aad14-2">
    <g transform="translate(162.17,69.34)">
      <g class="primitive">
        <text text-anchor="middle" dy="0.6em">Line</text>
      </g>
    </g>
  </g>
  <g class="guide xlabels" font-size="3.18" font-family="'PT Sans Caption','Helvetica Neue','Helvetica',sans-serif" fill="#6C606B" id="img-1d1aad14-3">
    <g transform="translate(21.46,62.33)">
      <g class="primitive">
        <text text-anchor="middle" dy="0.6em">0</text>
      </g>
    </g>
    <g transform="translate(61.66,62.33)">
      <g class="primitive">
        <text text-anchor="middle" dy="0.6em">30</text>
      </g>
    </g>
    <g transform="translate(101.87,62.33)">
      <g class="primitive">
        <text text-anchor="middle" dy="0.6em">60</text>
      </g>
    </g>
    <g transform="translate(142.07,62.33)">
      <g class="primitive">
        <text text-anchor="middle" dy="0.6em">90</text>
      </g>
    </g>
    <g transform="translate(182.27,62.33)">
      <g class="primitive">
        <text text-anchor="middle" dy="0.6em">120</text>
      </g>
    </g>
    <g transform="translate(222.47,62.33)">
      <g class="primitive">
        <text text-anchor="middle" dy="0.6em">150</text>
      </g>
    </g>
    <g transform="translate(262.68,62.33)">
      <g class="primitive">
        <text text-anchor="middle" dy="0.6em">180</text>
      </g>
    </g>
    <g transform="translate(302.88,62.33)">
      <g class="primitive">
        <text text-anchor="middle" dy="0.6em">210</text>
      </g>
    </g>
  </g>
  <g clip-path="url(#img-1d1aad14-4)">
    <g id="img-1d1aad14-5">
      <g pointer-events="visible" fill="#000000" fill-opacity="0.000" stroke="#000000" stroke-opacity="0.000" class="guide background" id="img-1d1aad14-6">
        <g transform="translate(162.17,36.14)" id="img-1d1aad14-7">
          <path d="M-142.71,-25.2 L 142.71 -25.2 142.71 25.2 -142.71 25.2 z" class="primitive"/>
        </g>
      </g>
      <g class="guide ygridlines xfixed" stroke-dasharray="0.5,0.5" stroke-width="0.2" stroke="#D0D0E0" id="img-1d1aad14-8">
        <g transform="translate(162.17,59.33)" id="img-1d1aad14-9">
          <path fill="none" d="M-142.71,0 L 142.71 0" class="primitive"/>
        </g>
        <g transform="translate(162.17,36.14)" id="img-1d1aad14-10">
          <path fill="none" d="M-142.71,0 L 142.71 0" class="primitive"/>
        </g>
        <g transform="translate(162.17,12.94)" id="img-1d1aad14-11">
          <path fill="none" d="M-142.71,0 L 142.71 0" class="primitive"/>
        </g>
      </g>
      <g class="guide xgridlines yfixed" stroke-dasharray="0.5,0.5" stroke-width="0.2" stroke="#D0D0E0" id="img-1d1aad14-12">
        <g transform="translate(21.46,36.14)" id="img-1d1aad14-13">
          <path fill="none" d="M0,-25.2 L 0 25.2" class="primitive"/>
        </g>
        <g transform="translate(61.66,36.14)" id="img-1d1aad14-14">
          <path fill="none" d="M0,-25.2 L 0 25.2" class="primitive"/>
        </g>
        <g transform="translate(101.87,36.14)" id="img-1d1aad14-15">
          <path fill="none" d="M0,-25.2 L 0 25.2" class="primitive"/>
        </g>
        <g transform="translate(142.07,36.14)" id="img-1d1aad14-16">
          <path fill="none" d="M0,-25.2 L 0 25.2" class="primitive"/>
        </g>
        <g transform="translate(182.27,36.14)" id="img-1d1aad14-17">
          <path fill="none" d="M0,-25.2 L 0 25.2" class="primitive"/>
        </g>
        <g transform="translate(222.47,36.14)" id="img-1d1aad14-18">
          <path fill="none" d="M0,-25.2 L 0 25.2" class="primitive"/>
        </g>
        <g transform="translate(262.68,36.14)" id="img-1d1aad14-19">
          <path fill="none" d="M0,-25.2 L 0 25.2" class="primitive"/>
        </g>
        <g transform="translate(302.88,36.14)" id="img-1d1aad14-20">
          <path fill="none" d="M0,-25.2 L 0 25.2" class="primitive"/>
        </g>
      </g>
      <g class="plotpanel" id="img-1d1aad14-21">
        <metadata>
          <boundingbox value="19.462499999999977mm 10.939999999999998mm 285.41749999999996mm 50.392500000000005mm"/>
          <unitbox value="-1.492444499720167 1.0431104165543998 212.98488899944036 -1.0862208331088"/>
        </metadata>
        <g shape-rendering="crispEdges" stroke-width="0.3" id="img-1d1aad14-22">
          <g stroke="#000000" stroke-opacity="0.000" class="geometry" fill="#000000" id="img-1d1aad14-23">
            <g transform="translate(22.8,36.14)" id="img-1d1aad14-24">
              <path d="M-0.57,-23.2 L 0.57 -23.2 0.57 23.2 -0.57 23.2 z" class="primitive"/>
            </g>
            <g transform="translate(24.14,36.14)" id="img-1d1aad14-25">
              <path d="M-0.57,-23.2 L 0.57 -23.2 0.57 23.2 -0.57 23.2 z" class="primitive"/>
            </g>
            <g transform="translate(25.48,36.14)" id="img-1d1aad14-26">
              <path d="M-0.57,-23.2 L 0.57 -23.2 0.57 23.2 -0.57 23.2 z" class="primitive"/>
            </g>
            <g transform="translate(26.82,59.34)" id="img-1d1aad14-27">
              <path d="M-0.57,-0 L 0.57 -0 0.57 0 -0.57 0 z" class="primitive"/>
            </g>
            <g transform="translate(28.16,36.14)" id="img-1d1aad14-28">
              <path d="M-0.57,-23.2 L 0.57 -23.2 0.57 23.2 -0.57 23.2 z" class="primitive"/>
            </g>
            <g transform="translate(29.5,59.34)" id="img-1d1aad14-29">
              <path d="M-0.57,-0 L 0.57 -0 0.57 0 -0.57 0 z" class="primitive"/>
            </g>
            <g transform="translate(30.84,59.34)" id="img-1d1aad14-30">
              <path d="M-0.57,-0 L 0.57 -0 0.57 0 -0.57 0 z" class="primitive"/>
            </g>
            <g transform="translate(32.18,36.14)" id="img-1d1aad14-31">
              <path d="M-0.57,-23.2 L 0.57 -23.2 0.57 23.2 -0.57 23.2 z" class="primitive"/>
            </g>
            <g transform="translate(33.52,59.34)" id="img-1d1aad14-32">
              <path d="M-0.57,-0 L 0.57 -0 0.57 0 -0.57 0 z" class="primitive"/>
            </g>
            <g transform="translate(34.86,59.34)" id="img-1d1aad14-33">
              <path d="M-0.57,-0 L 0.57 -0 0.57 0 -0.57 0 z" class="primitive"/>
            </g>
            <g transform="translate(36.2,59.34)" id="img-1d1aad14-34">
              <path d="M-0.57,-0 L 0.57 -0 0.57 0 -0.57 0 z" class="primitive"/>
            </g>
            <g transform="translate(37.54,59.34)" id="img-1d1aad14-35">
              <path d="M-0.57,-0 L 0.57 -0 0.57 0 -0.57 0 z" class="primitive"/>
            </g>
            <g transform="translate(38.88,59.34)" id="img-1d1aad14-36">
              <path d="M-0.57,-0 L 0.57 -0 0.57 0 -0.57 0 z" class="primitive"/>
            </g>
            <g transform="translate(40.22,59.34)" id="img-1d1aad14-37">
              <path d="M-0.57,-0 L 0.57 -0 0.57 0 -0.57 0 z" class="primitive"/>
            </g>
            <g transform="translate(41.56,59.34)" id="img-1d1aad14-38">
              <path d="M-0.57,-0 L 0.57 -0 0.57 0 -0.57 0 z" class="primitive"/>
            </g>
            <g transform="translate(42.9,59.34)" id="img-1d1aad14-39">
              <path d="M-0.57,-0 L 0.57 -0 0.57 0 -0.57 0 z" class="primitive"/>
            </g>
            <g transform="translate(44.24,36.14)" id="img-1d1aad14-40">
              <path d="M-0.57,-23.2 L 0.57 -23.2 0.57 23.2 -0.57 23.2 z" class="primitive"/>
            </g>
            <g transform="translate(45.58,36.14)" id="img-1d1aad14-41">
              <path d="M-0.57,-23.2 L 0.57 -23.2 0.57 23.2 -0.57 23.2 z" class="primitive"/>
            </g>
            <g transform="translate(46.92,36.14)" id="img-1d1aad14-42">
              <path d="M-0.57,-23.2 L 0.57 -23.2 0.57 23.2 -0.57 23.2 z" class="primitive"/>
            </g>
            <g transform="translate(48.26,36.14)" id="img-1d1aad14-43">
              <path d="M-0.57,-23.2 L 0.57 -23.2 0.57 23.2 -0.57 23.2 z" class="primitive"/>
            </g>
            <g transform="translate(49.6,36.14)" id="img-1d1aad14-44">
              <path d="M-0.57,-23.2 L 0.57 -23.2 0.57 23.2 -0.57 23.2 z" class="primitive"/>
            </g>
            <g transform="translate(50.94,36.14)" id="img-1d1aad14-45">
              <path d="M-0.57,-23.2 L 0.57 -23.2 0.57 23.2 -0.57 23.2 z" class="primitive"/>
            </g>
            <g transform="translate(52.28,36.14)" id="img-1d1aad14-46">
              <path d="M-0.57,-23.2 L 0.57 -23.2 0.57 23.2 -0.57 23.2 z" class="primitive"/>
            </g>
            <g transform="translate(53.62,36.14)" id="img-1d1aad14-47">
              <path d="M-0.57,-23.2 L 0.57 -23.2 0.57 23.2 -0.57 23.2 z" class="primitive"/>
            </g>
            <g transform="translate(54.96,59.34)" id="img-1d1aad14-48">
              <path d="M-0.57,-0 L 0.57 -0 0.57 0 -0.57 0 z" class="primitive"/>
            </g>
            <g transform="translate(56.3,59.34)" id="img-1d1aad14-49">
              <path d="M-0.57,-0 L 0.57 -0 0.57 0 -0.57 0 z" class="primitive"/>
            </g>
            <g transform="translate(57.64,59.34)" id="img-1d1aad14-50">
              <path d="M-0.57,-0 L 0.57 -0 0.57 0 -0.57 0 z" class="primitive"/>
            </g>
            <g transform="translate(58.98,59.34)" id="img-1d1aad14-51">
              <path d="M-0.57,-0 L 0.57 -0 0.57 0 -0.57 0 z" class="primitive"/>
            </g>
            <g transform="translate(60.32,59.34)" id="img-1d1aad14-52">
              <path d="M-0.57,-0 L 0.57 -0 0.57 0 -0.57 0 z" class="primitive"/>
            </g>
            <g transform="translate(61.66,59.34)" id="img-1d1aad14-53">
              <path d="M-0.57,-0 L 0.57 -0 0.57 0 -0.57 0 z" class="primitive"/>
            </g>
            <g transform="translate(63.01,59.34)" id="img-1d1aad14-54">
              <path d="M-0.57,-0 L 0.57 -0 0.57 0 -0.57 0 z" class="primitive"/>
            </g>
            <g transform="translate(64.35,59.34)" id="img-1d1aad14-55">
              <path d="M-0.57,-0 L 0.57 -0 0.57 0 -0.57 0 z" class="primitive"/>
            </g>
            <g transform="translate(65.69,59.34)" id="img-1d1aad14-56">
              <path d="M-0.57,-0 L 0.57 -0 0.57 0 -0.57 0 z" class="primitive"/>
            </g>
            <g transform="translate(67.03,36.14)" id="img-1d1aad14-57">
              <path d="M-0.57,-23.2 L 0.57 -23.2 0.57 23.2 -0.57 23.2 z" class="primitive"/>
            </g>
            <g transform="translate(68.37,59.34)" id="img-1d1aad14-58">
              <path d="M-0.57,-0 L 0.57 -0 0.57 0 -0.57 0 z" class="primitive"/>
            </g>
            <g transform="translate(69.71,36.14)" id="img-1d1aad14-59">
              <path d="M-0.57,-23.2 L 0.57 -23.2 0.57 23.2 -0.57 23.2 z" class="primitive"/>
            </g>
            <g transform="translate(71.05,59.34)" id="img-1d1aad14-60">
              <path d="M-0.57,-0 L 0.57 -0 0.57 0 -0.57 0 z" class="primitive"/>
            </g>
            <g transform="translate(72.39,59.34)" id="img-1d1aad14-61">
              <path d="M-0.57,-0 L 0.57 -0 0.57 0 -0.57 0 z" class="primitive"/>
            </g>
            <g transform="translate(73.73,59.34)" id="img-1d1aad14-62">
              <path d="M-0.57,-0 L 0.57 -0 0.57 0 -0.57 0 z" class="primitive"/>
            </g>
            <g transform="translate(75.07,59.34)" id="img-1d1aad14-63">
              <path d="M-0.57,-0 L 0.57 -0 0.57 0 -0.57 0 z" class="primitive"/>
            </g>
            <g transform="translate(76.41,59.34)" id="img-1d1aad14-64">
              <path d="M-0.57,-0 L 0.57 -0 0.57 0 -0.57 0 z" class="primitive"/>
            </g>
            <g transform="translate(77.75,36.14)" id="img-1d1aad14-65">
              <path d="M-0.57,-23.2 L 0.57 -23.2 0.57 23.2 -0.57 23.2 z" class="primitive"/>
            </g>
            <g transform="translate(79.09,36.14)" id="img-1d1aad14-66">
              <path d="M-0.57,-23.2 L 0.57 -23.2 0.57 23.2 -0.57 23.2 z" class="primitive"/>
            </g>
            <g transform="translate(80.43,36.14)" id="img-1d1aad14-67">
              <path d="M-0.57,-23.2 L 0.57 -23.2 0.57 23.2 -0.57 23.2 z" class="primitive"/>
            </g>
            <g transform="translate(81.77,36.14)" id="img-1d1aad14-68">
              <path d="M-0.57,-23.2 L 0.57 -23.2 0.57 23.2 -0.57 23.2 z" class="primitive"/>
            </g>
            <g transform="translate(83.11,59.34)" id="img-1d1aad14-69">
              <path d="M-0.57,-0 L 0.57 -0 0.57 0 -0.57 0 z" class="primitive"/>
            </g>
            <g transform="translate(84.45,59.34)" id="img-1d1aad14-70">
              <path d="M-0.57,-0 L 0.57 -0 0.57 0 -0.57 0 z" class="primitive"/>
            </g>
            <g transform="translate(85.79,36.14)" id="img-1d1aad14-71">
              <path d="M-0.57,-23.2 L 0.57 -23.2 0.57 23.2 -0.57 23.2 z" class="primitive"/>
            </g>
            <g transform="translate(87.13,59.34)" id="img-1d1aad14-72">
              <path d="M-0.57,-0 L 0.57 -0 0.57 0 -0.57 0 z" class="primitive"/>
            </g>
            <g transform="translate(88.47,59.34)" id="img-1d1aad14-73">
              <path d="M-0.57,-0 L 0.57 -0 0.57 0 -0.57 0 z" class="primitive"/>
            </g>
            <g transform="translate(89.81,59.34)" id="img-1d1aad14-74">
              <path d="M-0.57,-0 L 0.57 -0 0.57 0 -0.57 0 z" class="primitive"/>
            </g>
            <g transform="translate(91.15,36.14)" id="img-1d1aad14-75">
              <path d="M-0.57,-23.2 L 0.57 -23.2 0.57 23.2 -0.57 23.2 z" class="primitive"/>
            </g>
            <g transform="translate(92.49,59.34)" id="img-1d1aad14-76">
              <path d="M-0.57,-0 L 0.57 -0 0.57 0 -0.57 0 z" class="primitive"/>
            </g>
            <g transform="translate(93.83,36.14)" id="img-1d1aad14-77">
              <path d="M-0.57,-23.2 L 0.57 -23.2 0.57 23.2 -0.57 23.2 z" class="primitive"/>
            </g>
            <g transform="translate(95.17,36.14)" id="img-1d1aad14-78">
              <path d="M-0.57,-23.2 L 0.57 -23.2 0.57 23.2 -0.57 23.2 z" class="primitive"/>
            </g>
            <g transform="translate(96.51,36.14)" id="img-1d1aad14-79">
              <path d="M-0.57,-23.2 L 0.57 -23.2 0.57 23.2 -0.57 23.2 z" class="primitive"/>
            </g>
            <g transform="translate(97.85,59.34)" id="img-1d1aad14-80">
              <path d="M-0.57,-0 L 0.57 -0 0.57 0 -0.57 0 z" class="primitive"/>
            </g>
            <g transform="translate(99.19,36.14)" id="img-1d1aad14-81">
              <path d="M-0.57,-23.2 L 0.57 -23.2 0.57 23.2 -0.57 23.2 z" class="primitive"/>
            </g>
            <g transform="translate(100.53,36.14)" id="img-1d1aad14-82">
              <path d="M-0.57,-23.2 L 0.57 -23.2 0.57 23.2 -0.57 23.2 z" class="primitive"/>
            </g>
            <g transform="translate(101.87,36.14)" id="img-1d1aad14-83">
              <path d="M-0.57,-23.2 L 0.57 -23.2 0.57 23.2 -0.57 23.2 z" class="primitive"/>
            </g>
            <g transform="translate(103.21,36.14)" id="img-1d1aad14-84">
              <path d="M-0.57,-23.2 L 0.57 -23.2 0.57 23.2 -0.57 23.2 z" class="primitive"/>
            </g>
            <g transform="translate(104.55,36.14)" id="img-1d1aad14-85">
              <path d="M-0.57,-23.2 L 0.57 -23.2 0.57 23.2 -0.57 23.2 z" class="primitive"/>
            </g>
            <g transform="translate(105.89,59.34)" id="img-1d1aad14-86">
              <path d="M-0.57,-0 L 0.57 -0 0.57 0 -0.57 0 z" class="primitive"/>
            </g>
            <g transform="translate(107.23,36.14)" id="img-1d1aad14-87">
              <path d="M-0.57,-23.2 L 0.57 -23.2 0.57 23.2 -0.57 23.2 z" class="primitive"/>
            </g>
            <g transform="translate(108.57,59.34)" id="img-1d1aad14-88">
              <path d="M-0.57,-0 L 0.57 -0 0.57 0 -0.57 0 z" class="primitive"/>
            </g>
            <g transform="translate(109.91,36.14)" id="img-1d1aad14-89">
              <path d="M-0.57,-23.2 L 0.57 -23.2 0.57 23.2 -0.57 23.2 z" class="primitive"/>
            </g>
            <g transform="translate(111.25,36.14)" id="img-1d1aad14-90">
              <path d="M-0.57,-23.2 L 0.57 -23.2 0.57 23.2 -0.57 23.2 z" class="primitive"/>
            </g>
            <g transform="translate(112.59,36.14)" id="img-1d1aad14-91">
              <path d="M-0.57,-23.2 L 0.57 -23.2 0.57 23.2 -0.57 23.2 z" class="primitive"/>
            </g>
            <g transform="translate(113.93,36.14)" id="img-1d1aad14-92">
              <path d="M-0.57,-23.2 L 0.57 -23.2 0.57 23.2 -0.57 23.2 z" class="primitive"/>
            </g>
            <g transform="translate(115.27,59.34)" id="img-1d1aad14-93">
              <path d="M-0.57,-0 L 0.57 -0 0.57 0 -0.57 0 z" class="primitive"/>
            </g>
            <g transform="translate(116.61,36.14)" id="img-1d1aad14-94">
              <path d="M-0.57,-23.2 L 0.57 -23.2 0.57 23.2 -0.57 23.2 z" class="primitive"/>
            </g>
            <g transform="translate(117.95,36.14)" id="img-1d1aad14-95">
              <path d="M-0.57,-23.2 L 0.57 -23.2 0.57 23.2 -0.57 23.2 z" class="primitive"/>
            </g>
            <g transform="translate(119.29,36.14)" id="img-1d1aad14-96">
              <path d="M-0.57,-23.2 L 0.57 -23.2 0.57 23.2 -0.57 23.2 z" class="primitive"/>
            </g>
            <g transform="translate(120.63,59.34)" id="img-1d1aad14-97">
              <path d="M-0.57,-0 L 0.57 -0 0.57 0 -0.57 0 z" class="primitive"/>
            </g>
            <g transform="translate(121.97,59.34)" id="img-1d1aad14-98">
              <path d="M-0.57,-0 L 0.57 -0 0.57 0 -0.57 0 z" class="primitive"/>
            </g>
            <g transform="translate(123.31,36.14)" id="img-1d1aad14-99">
              <path d="M-0.57,-23.2 L 0.57 -23.2 0.57 23.2 -0.57 23.2 z" class="primitive"/>
            </g>
            <g transform="translate(124.65,59.34)" id="img-1d1aad14-100">
              <path d="M-0.57,-0 L 0.57 -0 0.57 0 -0.57 0 z" class="primitive"/>
            </g>
            <g transform="translate(125.99,59.34)" id="img-1d1aad14-101">
              <path d="M-0.57,-0 L 0.57 -0 0.57 0 -0.57 0 z" class="primitive"/>
            </g>
            <g transform="translate(127.33,36.14)" id="img-1d1aad14-102">
              <path d="M-0.57,-23.2 L 0.57 -23.2 0.57 23.2 -0.57 23.2 z" class="primitive"/>
            </g>
            <g transform="translate(128.67,36.14)" id="img-1d1aad14-103">
              <path d="M-0.57,-23.2 L 0.57 -23.2 0.57 23.2 -0.57 23.2 z" class="primitive"/>
            </g>
            <g transform="translate(130.01,36.14)" id="img-1d1aad14-104">
              <path d="M-0.57,-23.2 L 0.57 -23.2 0.57 23.2 -0.57 23.2 z" class="primitive"/>
            </g>
            <g transform="translate(131.35,36.14)" id="img-1d1aad14-105">
              <path d="M-0.57,-23.2 L 0.57 -23.2 0.57 23.2 -0.57 23.2 z" class="primitive"/>
            </g>
            <g transform="translate(132.69,36.14)" id="img-1d1aad14-106">
              <path d="M-0.57,-23.2 L 0.57 -23.2 0.57 23.2 -0.57 23.2 z" class="primitive"/>
            </g>
            <g transform="translate(134.03,36.14)" id="img-1d1aad14-107">
              <path d="M-0.57,-23.2 L 0.57 -23.2 0.57 23.2 -0.57 23.2 z" class="primitive"/>
            </g>
            <g transform="translate(135.37,36.14)" id="img-1d1aad14-108">
              <path d="M-0.57,-23.2 L 0.57 -23.2 0.57 23.2 -0.57 23.2 z" class="primitive"/>
            </g>
            <g transform="translate(136.71,36.14)" id="img-1d1aad14-109">
              <path d="M-0.57,-23.2 L 0.57 -23.2 0.57 23.2 -0.57 23.2 z" class="primitive"/>
            </g>
            <g transform="translate(138.05,59.34)" id="img-1d1aad14-110">
              <path d="M-0.57,-0 L 0.57 -0 0.57 0 -0.57 0 z" class="primitive"/>
            </g>
            <g transform="translate(139.39,59.34)" id="img-1d1aad14-111">
              <path d="M-0.57,-0 L 0.57 -0 0.57 0 -0.57 0 z" class="primitive"/>
            </g>
            <g transform="translate(140.73,59.34)" id="img-1d1aad14-112">
              <path d="M-0.57,-0 L 0.57 -0 0.57 0 -0.57 0 z" class="primitive"/>
            </g>
            <g transform="translate(142.07,36.14)" id="img-1d1aad14-113">
              <path d="M-0.57,-23.2 L 0.57 -23.2 0.57 23.2 -0.57 23.2 z" class="primitive"/>
            </g>
            <g transform="translate(143.41,59.34)" id="img-1d1aad14-114">
              <path d="M-0.57,-0 L 0.57 -0 0.57 0 -0.57 0 z" class="primitive"/>
            </g>
            <g transform="translate(144.75,59.34)" id="img-1d1aad14-115">
              <path d="M-0.57,-0 L 0.57 -0 0.57 0 -0.57 0 z" class="primitive"/>
            </g>
            <g transform="translate(146.09,59.34)" id="img-1d1aad14-116">
              <path d="M-0.57,-0 L 0.57 -0 0.57 0 -0.57 0 z" class="primitive"/>
            </g>
            <g transform="translate(147.43,36.14)" id="img-1d1aad14-117">
              <path d="M-0.57,-23.2 L 0.57 -23.2 0.57 23.2 -0.57 23.2 z" class="primitive"/>
            </g>
            <g transform="translate(148.77,36.14)" id="img-1d1aad14-118">
              <path d="M-0.57,-23.2 L 0.57 -23.2 0.57 23.2 -0.57 23.2 z" class="primitive"/>
            </g>
            <g transform="translate(150.11,36.14)" id="img-1d1aad14-119">
              <path d="M-0.57,-23.2 L 0.57 -23.2 0.57 23.2 -0.57 23.2 z" class="primitive"/>
            </g>
            <g transform="translate(151.45,36.14)" id="img-1d1aad14-120">
              <path d="M-0.57,-23.2 L 0.57 -23.2 0.57 23.2 -0.57 23.2 z" class="primitive"/>
            </g>
            <g transform="translate(152.79,59.34)" id="img-1d1aad14-121">
              <path d="M-0.57,-0 L 0.57 -0 0.57 0 -0.57 0 z" class="primitive"/>
            </g>
            <g transform="translate(154.13,36.14)" id="img-1d1aad14-122">
              <path d="M-0.57,-23.2 L 0.57 -23.2 0.57 23.2 -0.57 23.2 z" class="primitive"/>
            </g>
            <g transform="translate(155.47,59.34)" id="img-1d1aad14-123">
              <path d="M-0.57,-0 L 0.57 -0 0.57 0 -0.57 0 z" class="primitive"/>
            </g>
            <g transform="translate(156.81,59.34)" id="img-1d1aad14-124">
              <path d="M-0.57,-0 L 0.57 -0 0.57 0 -0.57 0 z" class="primitive"/>
            </g>
            <g transform="translate(158.15,59.34)" id="img-1d1aad14-125">
              <path d="M-0.57,-0 L 0.57 -0 0.57 0 -0.57 0 z" class="primitive"/>
            </g>
            <g transform="translate(159.49,59.34)" id="img-1d1aad14-126">
              <path d="M-0.57,-0 L 0.57 -0 0.57 0 -0.57 0 z" class="primitive"/>
            </g>
            <g transform="translate(160.83,59.34)" id="img-1d1aad14-127">
              <path d="M-0.57,-0 L 0.57 -0 0.57 0 -0.57 0 z" class="primitive"/>
            </g>
            <g transform="translate(162.17,36.14)" id="img-1d1aad14-128">
              <path d="M-0.57,-23.2 L 0.57 -23.2 0.57 23.2 -0.57 23.2 z" class="primitive"/>
            </g>
            <g transform="translate(163.51,59.34)" id="img-1d1aad14-129">
              <path d="M-0.57,-0 L 0.57 -0 0.57 0 -0.57 0 z" class="primitive"/>
            </g>
            <g transform="translate(164.85,36.14)" id="img-1d1aad14-130">
              <path d="M-0.57,-23.2 L 0.57 -23.2 0.57 23.2 -0.57 23.2 z" class="primitive"/>
            </g>
            <g transform="translate(166.19,59.34)" id="img-1d1aad14-131">
              <path d="M-0.57,-0 L 0.57 -0 0.57 0 -0.57 0 z" class="primitive"/>
            </g>
            <g transform="translate(167.53,59.34)" id="img-1d1aad14-132">
              <path d="M-0.57,-0 L 0.57 -0 0.57 0 -0.57 0 z" class="primitive"/>
            </g>
            <g transform="translate(168.87,59.34)" id="img-1d1aad14-133">
              <path d="M-0.57,-0 L 0.57 -0 0.57 0 -0.57 0 z" class="primitive"/>
            </g>
            <g transform="translate(170.21,36.14)" id="img-1d1aad14-134">
              <path d="M-0.57,-23.2 L 0.57 -23.2 0.57 23.2 -0.57 23.2 z" class="primitive"/>
            </g>
            <g transform="translate(171.55,59.34)" id="img-1d1aad14-135">
              <path d="M-0.57,-0 L 0.57 -0 0.57 0 -0.57 0 z" class="primitive"/>
            </g>
            <g transform="translate(172.89,36.14)" id="img-1d1aad14-136">
              <path d="M-0.57,-23.2 L 0.57 -23.2 0.57 23.2 -0.57 23.2 z" class="primitive"/>
            </g>
            <g transform="translate(174.23,59.34)" id="img-1d1aad14-137">
              <path d="M-0.57,-0 L 0.57 -0 0.57 0 -0.57 0 z" class="primitive"/>
            </g>
            <g transform="translate(175.57,36.14)" id="img-1d1aad14-138">
              <path d="M-0.57,-23.2 L 0.57 -23.2 0.57 23.2 -0.57 23.2 z" class="primitive"/>
            </g>
            <g transform="translate(176.91,59.34)" id="img-1d1aad14-139">
              <path d="M-0.57,-0 L 0.57 -0 0.57 0 -0.57 0 z" class="primitive"/>
            </g>
            <g transform="translate(178.25,36.14)" id="img-1d1aad14-140">
              <path d="M-0.57,-23.2 L 0.57 -23.2 0.57 23.2 -0.57 23.2 z" class="primitive"/>
            </g>
            <g transform="translate(179.59,59.34)" id="img-1d1aad14-141">
              <path d="M-0.57,-0 L 0.57 -0 0.57 0 -0.57 0 z" class="primitive"/>
            </g>
            <g transform="translate(180.93,59.34)" id="img-1d1aad14-142">
              <path d="M-0.57,-0 L 0.57 -0 0.57 0 -0.57 0 z" class="primitive"/>
            </g>
            <g transform="translate(182.27,59.34)" id="img-1d1aad14-143">
              <path d="M-0.57,-0 L 0.57 -0 0.57 0 -0.57 0 z" class="primitive"/>
            </g>
            <g transform="translate(183.61,59.34)" id="img-1d1aad14-144">
              <path d="M-0.57,-0 L 0.57 -0 0.57 0 -0.57 0 z" class="primitive"/>
            </g>
            <g transform="translate(184.95,59.34)" id="img-1d1aad14-145">
              <path d="M-0.57,-0 L 0.57 -0 0.57 0 -0.57 0 z" class="primitive"/>
            </g>
            <g transform="translate(186.29,59.34)" id="img-1d1aad14-146">
              <path d="M-0.57,-0 L 0.57 -0 0.57 0 -0.57 0 z" class="primitive"/>
            </g>
            <g transform="translate(187.63,36.14)" id="img-1d1aad14-147">
              <path d="M-0.57,-23.2 L 0.57 -23.2 0.57 23.2 -0.57 23.2 z" class="primitive"/>
            </g>
            <g transform="translate(188.97,59.34)" id="img-1d1aad14-148">
              <path d="M-0.57,-0 L 0.57 -0 0.57 0 -0.57 0 z" class="primitive"/>
            </g>
            <g transform="translate(190.31,59.34)" id="img-1d1aad14-149">
              <path d="M-0.57,-0 L 0.57 -0 0.57 0 -0.57 0 z" class="primitive"/>
            </g>
            <g transform="translate(191.65,59.34)" id="img-1d1aad14-150">
              <path d="M-0.57,-0 L 0.57 -0 0.57 0 -0.57 0 z" class="primitive"/>
            </g>
            <g transform="translate(192.99,36.14)" id="img-1d1aad14-151">
              <path d="M-0.57,-23.2 L 0.57 -23.2 0.57 23.2 -0.57 23.2 z" class="primitive"/>
            </g>
            <g transform="translate(194.33,59.34)" id="img-1d1aad14-152">
              <path d="M-0.57,-0 L 0.57 -0 0.57 0 -0.57 0 z" class="primitive"/>
            </g>
            <g transform="translate(195.67,36.14)" id="img-1d1aad14-153">
              <path d="M-0.57,-23.2 L 0.57 -23.2 0.57 23.2 -0.57 23.2 z" class="primitive"/>
            </g>
            <g transform="translate(197.01,59.34)" id="img-1d1aad14-154">
              <path d="M-0.57,-0 L 0.57 -0 0.57 0 -0.57 0 z" class="primitive"/>
            </g>
            <g transform="translate(198.35,59.34)" id="img-1d1aad14-155">
              <path d="M-0.57,-0 L 0.57 -0 0.57 0 -0.57 0 z" class="primitive"/>
            </g>
            <g transform="translate(199.69,59.34)" id="img-1d1aad14-156">
              <path d="M-0.57,-0 L 0.57 -0 0.57 0 -0.57 0 z" class="primitive"/>
            </g>
            <g transform="translate(201.03,59.34)" id="img-1d1aad14-157">
              <path d="M-0.57,-0 L 0.57 -0 0.57 0 -0.57 0 z" class="primitive"/>
            </g>
            <g transform="translate(202.37,36.14)" id="img-1d1aad14-158">
              <path d="M-0.57,-23.2 L 0.57 -23.2 0.57 23.2 -0.57 23.2 z" class="primitive"/>
            </g>
            <g transform="translate(203.71,59.34)" id="img-1d1aad14-159">
              <path d="M-0.57,-0 L 0.57 -0 0.57 0 -0.57 0 z" class="primitive"/>
            </g>
            <g transform="translate(205.05,36.14)" id="img-1d1aad14-160">
              <path d="M-0.57,-23.2 L 0.57 -23.2 0.57 23.2 -0.57 23.2 z" class="primitive"/>
            </g>
            <g transform="translate(206.39,36.14)" id="img-1d1aad14-161">
              <path d="M-0.57,-23.2 L 0.57 -23.2 0.57 23.2 -0.57 23.2 z" class="primitive"/>
            </g>
            <g transform="translate(207.73,59.34)" id="img-1d1aad14-162">
              <path d="M-0.57,-0 L 0.57 -0 0.57 0 -0.57 0 z" class="primitive"/>
            </g>
            <g transform="translate(209.07,59.34)" id="img-1d1aad14-163">
              <path d="M-0.57,-0 L 0.57 -0 0.57 0 -0.57 0 z" class="primitive"/>
            </g>
            <g transform="translate(210.41,59.34)" id="img-1d1aad14-164">
              <path d="M-0.57,-0 L 0.57 -0 0.57 0 -0.57 0 z" class="primitive"/>
            </g>
            <g transform="translate(211.75,59.34)" id="img-1d1aad14-165">
              <path d="M-0.57,-0 L 0.57 -0 0.57 0 -0.57 0 z" class="primitive"/>
            </g>
            <g transform="translate(213.09,59.34)" id="img-1d1aad14-166">
              <path d="M-0.57,-0 L 0.57 -0 0.57 0 -0.57 0 z" class="primitive"/>
            </g>
            <g transform="translate(214.43,59.34)" id="img-1d1aad14-167">
              <path d="M-0.57,-0 L 0.57 -0 0.57 0 -0.57 0 z" class="primitive"/>
            </g>
            <g transform="translate(215.77,36.14)" id="img-1d1aad14-168">
              <path d="M-0.57,-23.2 L 0.57 -23.2 0.57 23.2 -0.57 23.2 z" class="primitive"/>
            </g>
            <g transform="translate(217.11,59.34)" id="img-1d1aad14-169">
              <path d="M-0.57,-0 L 0.57 -0 0.57 0 -0.57 0 z" class="primitive"/>
            </g>
            <g transform="translate(218.45,59.34)" id="img-1d1aad14-170">
              <path d="M-0.57,-0 L 0.57 -0 0.57 0 -0.57 0 z" class="primitive"/>
            </g>
            <g transform="translate(219.79,59.34)" id="img-1d1aad14-171">
              <path d="M-0.57,-0 L 0.57 -0 0.57 0 -0.57 0 z" class="primitive"/>
            </g>
            <g transform="translate(221.13,36.14)" id="img-1d1aad14-172">
              <path d="M-0.57,-23.2 L 0.57 -23.2 0.57 23.2 -0.57 23.2 z" class="primitive"/>
            </g>
            <g transform="translate(222.47,59.34)" id="img-1d1aad14-173">
              <path d="M-0.57,-0 L 0.57 -0 0.57 0 -0.57 0 z" class="primitive"/>
            </g>
            <g transform="translate(223.82,59.34)" id="img-1d1aad14-174">
              <path d="M-0.57,-0 L 0.57 -0 0.57 0 -0.57 0 z" class="primitive"/>
            </g>
            <g transform="translate(225.16,36.14)" id="img-1d1aad14-175">
              <path d="M-0.57,-23.2 L 0.57 -23.2 0.57 23.2 -0.57 23.2 z" class="primitive"/>
            </g>
            <g transform="translate(226.5,36.14)" id="img-1d1aad14-176">
              <path d="M-0.57,-23.2 L 0.57 -23.2 0.57 23.2 -0.57 23.2 z" class="primitive"/>
            </g>
            <g transform="translate(227.84,36.14)" id="img-1d1aad14-177">
              <path d="M-0.57,-23.2 L 0.57 -23.2 0.57 23.2 -0.57 23.2 z" class="primitive"/>
            </g>
            <g transform="translate(229.18,59.34)" id="img-1d1aad14-178">
              <path d="M-0.57,-0 L 0.57 -0 0.57 0 -0.57 0 z" class="primitive"/>
            </g>
            <g transform="translate(230.52,36.14)" id="img-1d1aad14-179">
              <path d="M-0.57,-23.2 L 0.57 -23.2 0.57 23.2 -0.57 23.2 z" class="primitive"/>
            </g>
            <g transform="translate(231.86,36.14)" id="img-1d1aad14-180">
              <path d="M-0.57,-23.2 L 0.57 -23.2 0.57 23.2 -0.57 23.2 z" class="primitive"/>
            </g>
            <g transform="translate(233.2,59.34)" id="img-1d1aad14-181">
              <path d="M-0.57,-0 L 0.57 -0 0.57 0 -0.57 0 z" class="primitive"/>
            </g>
            <g transform="translate(234.54,59.34)" id="img-1d1aad14-182">
              <path d="M-0.57,-0 L 0.57 -0 0.57 0 -0.57 0 z" class="primitive"/>
            </g>
            <g transform="translate(235.88,36.14)" id="img-1d1aad14-183">
              <path d="M-0.57,-23.2 L 0.57 -23.2 0.57 23.2 -0.57 23.2 z" class="primitive"/>
            </g>
            <g transform="translate(237.22,36.14)" id="img-1d1aad14-184">
              <path d="M-0.57,-23.2 L 0.57 -23.2 0.57 23.2 -0.57 23.2 z" class="primitive"/>
            </g>
            <g transform="translate(238.56,59.34)" id="img-1d1aad14-185">
              <path d="M-0.57,-0 L 0.57 -0 0.57 0 -0.57 0 z" class="primitive"/>
            </g>
            <g transform="translate(239.9,36.14)" id="img-1d1aad14-186">
              <path d="M-0.57,-23.2 L 0.57 -23.2 0.57 23.2 -0.57 23.2 z" class="primitive"/>
            </g>
            <g transform="translate(241.24,36.14)" id="img-1d1aad14-187">
              <path d="M-0.57,-23.2 L 0.57 -23.2 0.57 23.2 -0.57 23.2 z" class="primitive"/>
            </g>
            <g transform="translate(242.58,59.34)" id="img-1d1aad14-188">
              <path d="M-0.57,-0 L 0.57 -0 0.57 0 -0.57 0 z" class="primitive"/>
            </g>
            <g transform="translate(243.92,36.14)" id="img-1d1aad14-189">
              <path d="M-0.57,-23.2 L 0.57 -23.2 0.57 23.2 -0.57 23.2 z" class="primitive"/>
            </g>
            <g transform="translate(245.26,59.34)" id="img-1d1aad14-190">
              <path d="M-0.57,-0 L 0.57 -0 0.57 0 -0.57 0 z" class="primitive"/>
            </g>
            <g transform="translate(246.6,36.14)" id="img-1d1aad14-191">
              <path d="M-0.57,-23.2 L 0.57 -23.2 0.57 23.2 -0.57 23.2 z" class="primitive"/>
            </g>
            <g transform="translate(247.94,59.34)" id="img-1d1aad14-192">
              <path d="M-0.57,-0 L 0.57 -0 0.57 0 -0.57 0 z" class="primitive"/>
            </g>
            <g transform="translate(249.28,59.34)" id="img-1d1aad14-193">
              <path d="M-0.57,-0 L 0.57 -0 0.57 0 -0.57 0 z" class="primitive"/>
            </g>
            <g transform="translate(250.62,36.14)" id="img-1d1aad14-194">
              <path d="M-0.57,-23.2 L 0.57 -23.2 0.57 23.2 -0.57 23.2 z" class="primitive"/>
            </g>
            <g transform="translate(251.96,59.34)" id="img-1d1aad14-195">
              <path d="M-0.57,-0 L 0.57 -0 0.57 0 -0.57 0 z" class="primitive"/>
            </g>
            <g transform="translate(253.3,59.34)" id="img-1d1aad14-196">
              <path d="M-0.57,-0 L 0.57 -0 0.57 0 -0.57 0 z" class="primitive"/>
            </g>
            <g transform="translate(254.64,36.14)" id="img-1d1aad14-197">
              <path d="M-0.57,-23.2 L 0.57 -23.2 0.57 23.2 -0.57 23.2 z" class="primitive"/>
            </g>
            <g transform="translate(255.98,59.34)" id="img-1d1aad14-198">
              <path d="M-0.57,-0 L 0.57 -0 0.57 0 -0.57 0 z" class="primitive"/>
            </g>
            <g transform="translate(257.32,36.14)" id="img-1d1aad14-199">
              <path d="M-0.57,-23.2 L 0.57 -23.2 0.57 23.2 -0.57 23.2 z" class="primitive"/>
            </g>
            <g transform="translate(258.66,59.34)" id="img-1d1aad14-200">
              <path d="M-0.57,-0 L 0.57 -0 0.57 0 -0.57 0 z" class="primitive"/>
            </g>
            <g transform="translate(260,59.34)" id="img-1d1aad14-201">
              <path d="M-0.57,-0 L 0.57 -0 0.57 0 -0.57 0 z" class="primitive"/>
            </g>
            <g transform="translate(261.34,36.14)" id="img-1d1aad14-202">
              <path d="M-0.57,-23.2 L 0.57 -23.2 0.57 23.2 -0.57 23.2 z" class="primitive"/>
            </g>
            <g transform="translate(262.68,36.14)" id="img-1d1aad14-203">
              <path d="M-0.57,-23.2 L 0.57 -23.2 0.57 23.2 -0.57 23.2 z" class="primitive"/>
            </g>
            <g transform="translate(264.02,59.34)" id="img-1d1aad14-204">
              <path d="M-0.57,-0 L 0.57 -0 0.57 0 -0.57 0 z" class="primitive"/>
            </g>
            <g transform="translate(265.36,59.34)" id="img-1d1aad14-205">
              <path d="M-0.57,-0 L 0.57 -0 0.57 0 -0.57 0 z" class="primitive"/>
            </g>
            <g transform="translate(266.7,36.14)" id="img-1d1aad14-206">
              <path d="M-0.57,-23.2 L 0.57 -23.2 0.57 23.2 -0.57 23.2 z" class="primitive"/>
            </g>
            <g transform="translate(268.04,36.14)" id="img-1d1aad14-207">
              <path d="M-0.57,-23.2 L 0.57 -23.2 0.57 23.2 -0.57 23.2 z" class="primitive"/>
            </g>
            <g transform="translate(269.38,36.14)" id="img-1d1aad14-208">
              <path d="M-0.57,-23.2 L 0.57 -23.2 0.57 23.2 -0.57 23.2 z" class="primitive"/>
            </g>
            <g transform="translate(270.72,59.34)" id="img-1d1aad14-209">
              <path d="M-0.57,-0 L 0.57 -0 0.57 0 -0.57 0 z" class="primitive"/>
            </g>
            <g transform="translate(272.06,36.14)" id="img-1d1aad14-210">
              <path d="M-0.57,-23.2 L 0.57 -23.2 0.57 23.2 -0.57 23.2 z" class="primitive"/>
            </g>
            <g transform="translate(273.4,59.34)" id="img-1d1aad14-211">
              <path d="M-0.57,-0 L 0.57 -0 0.57 0 -0.57 0 z" class="primitive"/>
            </g>
            <g transform="translate(274.74,36.14)" id="img-1d1aad14-212">
              <path d="M-0.57,-23.2 L 0.57 -23.2 0.57 23.2 -0.57 23.2 z" class="primitive"/>
            </g>
            <g transform="translate(276.08,36.14)" id="img-1d1aad14-213">
              <path d="M-0.57,-23.2 L 0.57 -23.2 0.57 23.2 -0.57 23.2 z" class="primitive"/>
            </g>
            <g transform="translate(277.42,36.14)" id="img-1d1aad14-214">
              <path d="M-0.57,-23.2 L 0.57 -23.2 0.57 23.2 -0.57 23.2 z" class="primitive"/>
            </g>
            <g transform="translate(278.76,59.34)" id="img-1d1aad14-215">
              <path d="M-0.57,-0 L 0.57 -0 0.57 0 -0.57 0 z" class="primitive"/>
            </g>
            <g transform="translate(280.1,59.34)" id="img-1d1aad14-216">
              <path d="M-0.57,-0 L 0.57 -0 0.57 0 -0.57 0 z" class="primitive"/>
            </g>
            <g transform="translate(281.44,36.14)" id="img-1d1aad14-217">
              <path d="M-0.57,-23.2 L 0.57 -23.2 0.57 23.2 -0.57 23.2 z" class="primitive"/>
            </g>
            <g transform="translate(282.78,36.14)" id="img-1d1aad14-218">
              <path d="M-0.57,-23.2 L 0.57 -23.2 0.57 23.2 -0.57 23.2 z" class="primitive"/>
            </g>
            <g transform="translate(284.12,36.14)" id="img-1d1aad14-219">
              <path d="M-0.57,-23.2 L 0.57 -23.2 0.57 23.2 -0.57 23.2 z" class="primitive"/>
            </g>
            <g transform="translate(285.46,59.34)" id="img-1d1aad14-220">
              <path d="M-0.57,-0 L 0.57 -0 0.57 0 -0.57 0 z" class="primitive"/>
            </g>
            <g transform="translate(286.8,59.34)" id="img-1d1aad14-221">
              <path d="M-0.57,-0 L 0.57 -0 0.57 0 -0.57 0 z" class="primitive"/>
            </g>
            <g transform="translate(288.14,59.34)" id="img-1d1aad14-222">
              <path d="M-0.57,-0 L 0.57 -0 0.57 0 -0.57 0 z" class="primitive"/>
            </g>
            <g transform="translate(289.48,59.34)" id="img-1d1aad14-223">
              <path d="M-0.57,-0 L 0.57 -0 0.57 0 -0.57 0 z" class="primitive"/>
            </g>
            <g transform="translate(290.82,59.34)" id="img-1d1aad14-224">
              <path d="M-0.57,-0 L 0.57 -0 0.57 0 -0.57 0 z" class="primitive"/>
            </g>
            <g transform="translate(292.16,36.14)" id="img-1d1aad14-225">
              <path d="M-0.57,-23.2 L 0.57 -23.2 0.57 23.2 -0.57 23.2 z" class="primitive"/>
            </g>
            <g transform="translate(293.5,36.14)" id="img-1d1aad14-226">
              <path d="M-0.57,-23.2 L 0.57 -23.2 0.57 23.2 -0.57 23.2 z" class="primitive"/>
            </g>
            <g transform="translate(294.84,36.14)" id="img-1d1aad14-227">
              <path d="M-0.57,-23.2 L 0.57 -23.2 0.57 23.2 -0.57 23.2 z" class="primitive"/>
            </g>
            <g transform="translate(296.18,36.14)" id="img-1d1aad14-228">
              <path d="M-0.57,-23.2 L 0.57 -23.2 0.57 23.2 -0.57 23.2 z" class="primitive"/>
            </g>
            <g transform="translate(297.52,36.14)" id="img-1d1aad14-229">
              <path d="M-0.57,-23.2 L 0.57 -23.2 0.57 23.2 -0.57 23.2 z" class="primitive"/>
            </g>
            <g transform="translate(298.86,36.14)" id="img-1d1aad14-230">
              <path d="M-0.57,-23.2 L 0.57 -23.2 0.57 23.2 -0.57 23.2 z" class="primitive"/>
            </g>
            <g transform="translate(300.2,36.14)" id="img-1d1aad14-231">
              <path d="M-0.57,-23.2 L 0.57 -23.2 0.57 23.2 -0.57 23.2 z" class="primitive"/>
            </g>
            <g transform="translate(301.54,59.34)" id="img-1d1aad14-232">
              <path d="M-0.57,-0 L 0.57 -0 0.57 0 -0.57 0 z" class="primitive"/>
            </g>
            <g transform="translate(302.88,36.14)" id="img-1d1aad14-233">
              <path d="M-0.57,-23.2 L 0.57 -23.2 0.57 23.2 -0.57 23.2 z" class="primitive"/>
            </g>
          </g>
        </g>
      </g>
    </g>
  </g>
  <g class="guide ylabels" font-size="3.18" font-family="'PT Sans Caption','Helvetica Neue','Helvetica',sans-serif" fill="#6C606B" id="img-1d1aad14-234">
    <g transform="translate(18.46,59.33)" id="img-1d1aad14-235">
      <g class="primitive">
        <text text-anchor="end" dy="0.35em">0.0</text>
      </g>
    </g>
    <g transform="translate(18.46,36.14)" id="img-1d1aad14-236">
      <g class="primitive">
        <text text-anchor="end" dy="0.35em">0.5</text>
      </g>
    </g>
    <g transform="translate(18.46,12.94)" id="img-1d1aad14-237">
      <g class="primitive">
        <text text-anchor="end" dy="0.35em">1.0</text>
      </g>
    </g>
  </g>
  <g font-size="4.23" font-family="Palatino" fill="#564A55" stroke="#000000" stroke-opacity="0.000" id="img-1d1aad14-238">
    <g transform="translate(8.97,34.14)" id="img-1d1aad14-239">
      <g class="primitive">
        <text text-anchor="middle" dy="0.35em" transform="rotate(-90,0, 2)">Line Status</text>
      </g>
    </g>
  </g>
  <g font-size="4.23" font-family="Palatino" fill="#564A55" stroke="#000000" stroke-opacity="0.000" id="img-1d1aad14-240">
    <g transform="translate(162.17,5)" id="img-1d1aad14-241">
      <g class="primitive">
        <text text-anchor="middle" dy="0.6em">Results, Operational Status of Lines</text>
      </g>
    </g>
  </g>
</g>
<defs>
  <clipPath id="img-1d1aad14-4">
    <path d="M19.46,10.94 L 304.88 10.94 304.88 61.33 19.46 61.33" />
  </clipPath>
</defs>
</svg>
